<svg width="1363" height="163" viewBox="0 0 1363 163" fill="none" xmlns="http://www.w3.org/2000/svg">
<path d="M0 15C0 6.71573 6.71573 0 15 0H37V163H15C6.71573 163 0 156.284 0 148V15Z" fill="#424242"/>
<rect width="1097" height="163" transform="translate(37)" fill="#F0F0F0"/>
<path d="M101.906 53.9219L94.3945 51.2383V48.0859L104.602 52.375V54.6367L101.906 53.9219ZM94.3945 56.1719L101.918 53.4297L104.602 52.7852V55.0352L94.3945 59.3242V56.1719ZM116.414 43.9375V61H112.898V43.9375H116.414ZM123.211 51.2266V53.9688H115.453V51.2266H123.211ZM124.031 43.9375V46.6914H115.453V43.9375H124.031ZM133.102 57.9648V48.3203H136.477V61H133.301L133.102 57.9648ZM133.477 55.3633L134.473 55.3398C134.473 56.1836 134.375 56.9688 134.18 57.6953C133.984 58.4141 133.691 59.0391 133.301 59.5703C132.91 60.0938 132.418 60.5039 131.824 60.8008C131.23 61.0898 130.531 61.2344 129.727 61.2344C129.109 61.2344 128.539 61.1484 128.016 60.9766C127.5 60.7969 127.055 60.5195 126.68 60.1445C126.312 59.7617 126.023 59.2734 125.812 58.6797C125.609 58.0781 125.508 57.3555 125.508 56.5117V48.3203H128.883V56.5352C128.883 56.9102 128.926 57.2266 129.012 57.4844C129.105 57.7422 129.234 57.9531 129.398 58.1172C129.562 58.2812 129.754 58.3984 129.973 58.4688C130.199 58.5391 130.449 58.5742 130.723 58.5742C131.418 58.5742 131.965 58.4336 132.363 58.1523C132.77 57.8711 133.055 57.4883 133.219 57.0039C133.391 56.5117 133.477 55.9648 133.477 55.3633ZM142.43 51.0859V61H139.055V48.3203H142.23L142.43 51.0859ZM146.25 48.2383L146.191 51.3672C146.027 51.3438 145.828 51.3242 145.594 51.3086C145.367 51.2852 145.16 51.2734 144.973 51.2734C144.496 51.2734 144.082 51.3359 143.73 51.4609C143.387 51.5781 143.098 51.7539 142.863 51.9883C142.637 52.2227 142.465 52.5078 142.348 52.8438C142.238 53.1797 142.176 53.5625 142.16 53.9922L141.48 53.7812C141.48 52.9609 141.562 52.207 141.727 51.5195C141.891 50.8242 142.129 50.2188 142.441 49.7031C142.762 49.1875 143.152 48.7891 143.613 48.5078C144.074 48.2266 144.602 48.0859 145.195 48.0859C145.383 48.0859 145.574 48.1016 145.77 48.1328C145.965 48.1562 146.125 48.1914 146.25 48.2383ZM151.148 51.0273V61H147.773V48.3203H150.938L151.148 51.0273ZM150.656 54.2148H149.742C149.742 53.2773 149.863 52.4336 150.105 51.6836C150.348 50.9258 150.688 50.2812 151.125 49.75C151.562 49.2109 152.082 48.8008 152.684 48.5195C153.293 48.2305 153.973 48.0859 154.723 48.0859C155.316 48.0859 155.859 48.1719 156.352 48.3438C156.844 48.5156 157.266 48.7891 157.617 49.1641C157.977 49.5391 158.25 50.0352 158.438 50.6523C158.633 51.2695 158.73 52.0234 158.73 52.9141V61H155.332V52.9023C155.332 52.3398 155.254 51.9023 155.098 51.5898C154.941 51.2773 154.711 51.0586 154.406 50.9336C154.109 50.8008 153.742 50.7344 153.305 50.7344C152.852 50.7344 152.457 50.8242 152.121 51.0039C151.793 51.1836 151.52 51.4336 151.301 51.7539C151.09 52.0664 150.93 52.4336 150.82 52.8555C150.711 53.2773 150.656 53.7305 150.656 54.2148ZM164.859 48.3203V61H161.473V48.3203H164.859ZM161.262 45.0156C161.262 44.5234 161.434 44.1172 161.777 43.7969C162.121 43.4766 162.582 43.3164 163.16 43.3164C163.73 43.3164 164.188 43.4766 164.531 43.7969C164.883 44.1172 165.059 44.5234 165.059 45.0156C165.059 45.5078 164.883 45.9141 164.531 46.2344C164.188 46.5547 163.73 46.7148 163.16 46.7148C162.582 46.7148 162.121 46.5547 161.777 46.2344C161.434 45.9141 161.262 45.5078 161.262 45.0156ZM176.742 56.5352C176.742 56.2305 176.695 55.957 176.602 55.7148C176.516 55.4648 176.352 55.2383 176.109 55.0352C175.867 54.8242 175.527 54.6172 175.09 54.4141C174.652 54.2109 174.086 54 173.391 53.7812C172.617 53.5312 171.883 53.25 171.188 52.9375C170.5 52.625 169.891 52.2617 169.359 51.8477C168.836 51.4258 168.422 50.9375 168.117 50.3828C167.82 49.8281 167.672 49.1836 167.672 48.4492C167.672 47.7383 167.828 47.0938 168.141 46.5156C168.453 45.9297 168.891 45.4297 169.453 45.0156C170.016 44.5938 170.68 44.2695 171.445 44.043C172.219 43.8164 173.066 43.7031 173.988 43.7031C175.246 43.7031 176.344 43.9297 177.281 44.3828C178.219 44.8359 178.945 45.457 179.461 46.2461C179.984 47.0352 180.246 47.9375 180.246 48.9531H176.754C176.754 48.4531 176.648 48.0156 176.438 47.6406C176.234 47.2578 175.922 46.957 175.5 46.7383C175.086 46.5195 174.562 46.4102 173.93 46.4102C173.32 46.4102 172.812 46.5039 172.406 46.6914C172 46.8711 171.695 47.1172 171.492 47.4297C171.289 47.7344 171.188 48.0781 171.188 48.4609C171.188 48.75 171.258 49.0117 171.398 49.2461C171.547 49.4805 171.766 49.6992 172.055 49.9023C172.344 50.1055 172.699 50.2969 173.121 50.4766C173.543 50.6562 174.031 50.832 174.586 51.0039C175.516 51.2852 176.332 51.6016 177.035 51.9531C177.746 52.3047 178.34 52.6992 178.816 53.1367C179.293 53.5742 179.652 54.0703 179.895 54.625C180.137 55.1797 180.258 55.8086 180.258 56.5117C180.258 57.2539 180.113 57.918 179.824 58.5039C179.535 59.0898 179.117 59.5859 178.57 59.9922C178.023 60.3984 177.371 60.707 176.613 60.918C175.855 61.1289 175.008 61.2344 174.07 61.2344C173.227 61.2344 172.395 61.125 171.574 60.9062C170.754 60.6797 170.008 60.3398 169.336 59.8867C168.672 59.4336 168.141 58.8555 167.742 58.1523C167.344 57.4492 167.145 56.6172 167.145 55.6562H170.672C170.672 56.1875 170.754 56.6367 170.918 57.0039C171.082 57.3711 171.312 57.668 171.609 57.8945C171.914 58.1211 172.273 58.2852 172.688 58.3867C173.109 58.4883 173.57 58.5391 174.07 58.5391C174.68 58.5391 175.18 58.4531 175.57 58.2812C175.969 58.1094 176.262 57.8711 176.449 57.5664C176.645 57.2617 176.742 56.918 176.742 56.5352ZM185.812 50.7578V65.875H182.438V48.3203H185.566L185.812 50.7578ZM193.84 54.5195V54.7656C193.84 55.6875 193.73 56.543 193.512 57.332C193.301 58.1211 192.988 58.8086 192.574 59.3945C192.16 59.9727 191.645 60.4258 191.027 60.7539C190.418 61.0742 189.715 61.2344 188.918 61.2344C188.145 61.2344 187.473 61.0781 186.902 60.7656C186.332 60.4531 185.852 60.0156 185.461 59.4531C185.078 58.8828 184.77 58.2227 184.535 57.4727C184.301 56.7227 184.121 55.918 183.996 55.0586V54.4141C184.121 53.4922 184.301 52.6484 184.535 51.8828C184.77 51.1094 185.078 50.4414 185.461 49.8789C185.852 49.3086 186.328 48.8672 186.891 48.5547C187.461 48.2422 188.129 48.0859 188.895 48.0859C189.699 48.0859 190.406 48.2383 191.016 48.543C191.633 48.8477 192.148 49.2852 192.562 49.8555C192.984 50.4258 193.301 51.1055 193.512 51.8945C193.73 52.6836 193.84 53.5586 193.84 54.5195ZM190.453 54.7656V54.5195C190.453 53.9805 190.406 53.4844 190.312 53.0312C190.227 52.5703 190.086 52.168 189.891 51.8242C189.703 51.4805 189.453 51.2148 189.141 51.0273C188.836 50.832 188.465 50.7344 188.027 50.7344C187.566 50.7344 187.172 50.8086 186.844 50.957C186.523 51.1055 186.262 51.3203 186.059 51.6016C185.855 51.8828 185.703 52.2188 185.602 52.6094C185.5 53 185.438 53.4414 185.414 53.9336V55.5625C185.453 56.1406 185.562 56.6602 185.742 57.1211C185.922 57.5742 186.199 57.9336 186.574 58.1992C186.949 58.4648 187.441 58.5977 188.051 58.5977C188.496 58.5977 188.871 58.5 189.176 58.3047C189.48 58.1016 189.727 57.8242 189.914 57.4727C190.109 57.1211 190.246 56.7148 190.324 56.2539C190.41 55.793 190.453 55.2969 190.453 54.7656ZM199.23 43V61H195.855V43H199.23ZM198.75 54.2148H197.824C197.832 53.332 197.949 52.5195 198.176 51.7773C198.402 51.0273 198.727 50.3789 199.148 49.832C199.57 49.2773 200.074 48.8477 200.66 48.543C201.254 48.2383 201.91 48.0859 202.629 48.0859C203.254 48.0859 203.82 48.1758 204.328 48.3555C204.844 48.5273 205.285 48.8086 205.652 49.1992C206.027 49.582 206.316 50.0859 206.52 50.7109C206.723 51.3359 206.824 52.0938 206.824 52.9844V61H203.426V52.9609C203.426 52.3984 203.344 51.957 203.18 51.6367C203.023 51.3086 202.793 51.0781 202.488 50.9453C202.191 50.8047 201.824 50.7344 201.387 50.7344C200.902 50.7344 200.488 50.8242 200.145 51.0039C199.809 51.1836 199.539 51.4336 199.336 51.7539C199.133 52.0664 198.984 52.4336 198.891 52.8555C198.797 53.2773 198.75 53.7305 198.75 54.2148ZM215.227 61.2344C214.242 61.2344 213.359 61.0781 212.578 60.7656C211.797 60.4453 211.133 60.0039 210.586 59.4414C210.047 58.8789 209.633 58.2266 209.344 57.4844C209.055 56.7344 208.91 55.9375 208.91 55.0938V54.625C208.91 53.6641 209.047 52.7852 209.32 51.9883C209.594 51.1914 209.984 50.5 210.492 49.9141C211.008 49.3281 211.633 48.8789 212.367 48.5664C213.102 48.2461 213.93 48.0859 214.852 48.0859C215.75 48.0859 216.547 48.2344 217.242 48.5312C217.938 48.8281 218.52 49.25 218.988 49.7969C219.465 50.3438 219.824 51 220.066 51.7656C220.309 52.5234 220.43 53.3672 220.43 54.2969V55.7031H210.352V53.4531H217.113V53.1953C217.113 52.7266 217.027 52.3086 216.855 51.9414C216.691 51.5664 216.441 51.2695 216.105 51.0508C215.77 50.832 215.34 50.7227 214.816 50.7227C214.371 50.7227 213.988 50.8203 213.668 51.0156C213.348 51.2109 213.086 51.4844 212.883 51.8359C212.688 52.1875 212.539 52.6016 212.438 53.0781C212.344 53.5469 212.297 54.0625 212.297 54.625V55.0938C212.297 55.6016 212.367 56.0703 212.508 56.5C212.656 56.9297 212.863 57.3008 213.129 57.6133C213.402 57.9258 213.73 58.168 214.113 58.3398C214.504 58.5117 214.945 58.5977 215.438 58.5977C216.047 58.5977 216.613 58.4805 217.137 58.2461C217.668 58.0039 218.125 57.6406 218.508 57.1562L220.148 58.9375C219.883 59.3203 219.52 59.6875 219.059 60.0391C218.605 60.3906 218.059 60.6797 217.418 60.9062C216.777 61.125 216.047 61.2344 215.227 61.2344ZM225.727 51.0859V61H222.352V48.3203H225.527L225.727 51.0859ZM229.547 48.2383L229.488 51.3672C229.324 51.3438 229.125 51.3242 228.891 51.3086C228.664 51.2852 228.457 51.2734 228.27 51.2734C227.793 51.2734 227.379 51.3359 227.027 51.4609C226.684 51.5781 226.395 51.7539 226.16 51.9883C225.934 52.2227 225.762 52.5078 225.645 52.8438C225.535 53.1797 225.473 53.5625 225.457 53.9922L224.777 53.7812C224.777 52.9609 224.859 52.207 225.023 51.5195C225.188 50.8242 225.426 50.2188 225.738 49.7031C226.059 49.1875 226.449 48.7891 226.91 48.5078C227.371 48.2266 227.898 48.0859 228.492 48.0859C228.68 48.0859 228.871 48.1016 229.066 48.1328C229.262 48.1562 229.422 48.1914 229.547 48.2383ZM236.742 61.2344C235.758 61.2344 234.875 61.0781 234.094 60.7656C233.312 60.4453 232.648 60.0039 232.102 59.4414C231.562 58.8789 231.148 58.2266 230.859 57.4844C230.57 56.7344 230.426 55.9375 230.426 55.0938V54.625C230.426 53.6641 230.562 52.7852 230.836 51.9883C231.109 51.1914 231.5 50.5 232.008 49.9141C232.523 49.3281 233.148 48.8789 233.883 48.5664C234.617 48.2461 235.445 48.0859 236.367 48.0859C237.266 48.0859 238.062 48.2344 238.758 48.5312C239.453 48.8281 240.035 49.25 240.504 49.7969C240.98 50.3438 241.34 51 241.582 51.7656C241.824 52.5234 241.945 53.3672 241.945 54.2969V55.7031H231.867V53.4531H238.629V53.1953C238.629 52.7266 238.543 52.3086 238.371 51.9414C238.207 51.5664 237.957 51.2695 237.621 51.0508C237.285 50.832 236.855 50.7227 236.332 50.7227C235.887 50.7227 235.504 50.8203 235.184 51.0156C234.863 51.2109 234.602 51.4844 234.398 51.8359C234.203 52.1875 234.055 52.6016 233.953 53.0781C233.859 53.5469 233.812 54.0625 233.812 54.625V55.0938C233.812 55.6016 233.883 56.0703 234.023 56.5C234.172 56.9297 234.379 57.3008 234.645 57.6133C234.918 57.9258 235.246 58.168 235.629 58.3398C236.02 58.5117 236.461 58.5977 236.953 58.5977C237.562 58.5977 238.129 58.4805 238.652 58.2461C239.184 58.0039 239.641 57.6406 240.023 57.1562L241.664 58.9375C241.398 59.3203 241.035 59.6875 240.574 60.0391C240.121 60.3906 239.574 60.6797 238.934 60.9062C238.293 61.125 237.562 61.2344 236.742 61.2344Z" fill="#888888"/>
<path d="M112.125 84.875V119H103.898V84.875H112.125ZM122.391 84.875V91.2266H93.8672V84.875H122.391ZM135.68 119.469C133.617 119.469 131.773 119.148 130.148 118.508C128.523 117.852 127.148 116.953 126.023 115.812C124.914 114.672 124.062 113.359 123.469 111.875C122.891 110.391 122.602 108.82 122.602 107.164V106.273C122.602 104.414 122.859 102.695 123.375 101.117C123.891 99.5234 124.656 98.1328 125.672 96.9453C126.688 95.7578 127.961 94.8359 129.492 94.1797C131.023 93.5078 132.805 93.1719 134.836 93.1719C136.633 93.1719 138.242 93.4609 139.664 94.0391C141.086 94.6172 142.289 95.4453 143.273 96.5234C144.273 97.6016 145.031 98.9062 145.547 100.438C146.078 101.969 146.344 103.688 146.344 105.594V108.805H125.625V103.859H138.633V103.25C138.648 102.406 138.5 101.688 138.188 101.094C137.891 100.5 137.453 100.047 136.875 99.7344C136.297 99.4219 135.594 99.2656 134.766 99.2656C133.906 99.2656 133.195 99.4531 132.633 99.8281C132.086 100.203 131.656 100.719 131.344 101.375C131.047 102.016 130.836 102.758 130.711 103.602C130.586 104.445 130.523 105.336 130.523 106.273V107.164C130.523 108.102 130.648 108.953 130.898 109.719C131.164 110.484 131.539 111.141 132.023 111.688C132.523 112.219 133.117 112.633 133.805 112.93C134.508 113.227 135.305 113.375 136.195 113.375C137.273 113.375 138.336 113.172 139.383 112.766C140.43 112.359 141.328 111.688 142.078 110.75L145.664 115.016C145.148 115.75 144.414 116.461 143.461 117.148C142.523 117.836 141.398 118.398 140.086 118.836C138.773 119.258 137.305 119.469 135.68 119.469ZM160.266 113.375C161 113.375 161.625 113.242 162.141 112.977C162.672 112.695 163.07 112.305 163.336 111.805C163.617 111.289 163.75 110.672 163.734 109.953H171.164C171.18 111.859 170.711 113.531 169.758 114.969C168.82 116.391 167.539 117.5 165.914 118.297C164.305 119.078 162.484 119.469 160.453 119.469C158.469 119.469 156.734 119.148 155.25 118.508C153.766 117.852 152.523 116.945 151.523 115.789C150.539 114.617 149.797 113.25 149.297 111.688C148.812 110.125 148.57 108.43 148.57 106.602V106.062C148.57 104.234 148.812 102.539 149.297 100.977C149.797 99.3984 150.539 98.0312 151.523 96.875C152.523 95.7031 153.758 94.7969 155.227 94.1562C156.711 93.5 158.438 93.1719 160.406 93.1719C162.516 93.1719 164.375 93.5703 165.984 94.3672C167.609 95.1641 168.883 96.3203 169.805 97.8359C170.727 99.3516 171.18 101.188 171.164 103.344H163.734C163.75 102.578 163.633 101.891 163.383 101.281C163.133 100.672 162.742 100.188 162.211 99.8281C161.695 99.4531 161.031 99.2656 160.219 99.2656C159.406 99.2656 158.75 99.4453 158.25 99.8047C157.75 100.164 157.367 100.664 157.102 101.305C156.852 101.93 156.68 102.648 156.586 103.461C156.508 104.273 156.469 105.141 156.469 106.062V106.602C156.469 107.539 156.508 108.422 156.586 109.25C156.68 110.062 156.859 110.781 157.125 111.406C157.391 112.016 157.773 112.5 158.273 112.859C158.773 113.203 159.438 113.375 160.266 113.375ZM182.273 83V119H174.375V83H182.273ZM181.336 105.453L179.484 105.5C179.484 103.719 179.703 102.078 180.141 100.578C180.578 99.0781 181.203 97.7734 182.016 96.6641C182.828 95.5547 183.805 94.6953 184.945 94.0859C186.086 93.4766 187.352 93.1719 188.742 93.1719C189.992 93.1719 191.133 93.3516 192.164 93.7109C193.211 94.0703 194.109 94.6484 194.859 95.4453C195.625 96.2422 196.211 97.2812 196.617 98.5625C197.039 99.8438 197.25 101.406 197.25 103.25V119H189.305V103.203C189.305 102.172 189.156 101.375 188.859 100.812C188.578 100.234 188.172 99.8359 187.641 99.6172C187.109 99.3828 186.461 99.2656 185.695 99.2656C184.773 99.2656 184.023 99.4219 183.445 99.7344C182.867 100.047 182.422 100.484 182.109 101.047C181.812 101.594 181.609 102.242 181.5 102.992C181.391 103.742 181.336 104.562 181.336 105.453ZM231.539 109.93C231.539 109.398 231.461 108.922 231.305 108.5C231.148 108.062 230.859 107.656 230.438 107.281C230.016 106.906 229.406 106.531 228.609 106.156C227.828 105.766 226.797 105.359 225.516 104.938C224.016 104.438 222.57 103.875 221.18 103.25C219.789 102.609 218.547 101.867 217.453 101.023C216.359 100.164 215.492 99.1641 214.852 98.0234C214.211 96.8672 213.891 95.5234 213.891 93.9922C213.891 92.5234 214.219 91.2031 214.875 90.0312C215.531 88.8438 216.445 87.8359 217.617 87.0078C218.805 86.1641 220.195 85.5234 221.789 85.0859C223.383 84.6328 225.125 84.4062 227.016 84.4062C229.516 84.4062 231.719 84.8438 233.625 85.7188C235.547 86.5781 237.047 87.8047 238.125 89.3984C239.219 90.9766 239.766 92.8438 239.766 95H231.586C231.586 94.1406 231.406 93.3828 231.047 92.7266C230.703 92.0703 230.18 91.5547 229.477 91.1797C228.773 90.8047 227.891 90.6172 226.828 90.6172C225.797 90.6172 224.93 90.7734 224.227 91.0859C223.523 91.3984 222.992 91.8203 222.633 92.3516C222.273 92.8672 222.094 93.4375 222.094 94.0625C222.094 94.5781 222.234 95.0469 222.516 95.4688C222.812 95.875 223.227 96.2578 223.758 96.6172C224.305 96.9766 224.961 97.3203 225.727 97.6484C226.508 97.9766 227.383 98.2969 228.352 98.6094C230.164 99.1875 231.773 99.8359 233.18 100.555C234.602 101.258 235.797 102.062 236.766 102.969C237.75 103.859 238.492 104.875 238.992 106.016C239.508 107.156 239.766 108.445 239.766 109.883C239.766 111.414 239.469 112.773 238.875 113.961C238.281 115.148 237.43 116.156 236.32 116.984C235.211 117.797 233.883 118.414 232.336 118.836C230.789 119.258 229.062 119.469 227.156 119.469C225.406 119.469 223.68 119.25 221.977 118.812C220.289 118.359 218.758 117.672 217.383 116.75C216.008 115.812 214.906 114.617 214.078 113.164C213.266 111.695 212.859 109.953 212.859 107.938H221.109C221.109 108.938 221.242 109.781 221.508 110.469C221.773 111.156 222.164 111.711 222.68 112.133C223.195 112.539 223.828 112.836 224.578 113.023C225.328 113.195 226.188 113.281 227.156 113.281C228.203 113.281 229.047 113.133 229.688 112.836C230.328 112.523 230.797 112.117 231.094 111.617C231.391 111.102 231.539 110.539 231.539 109.93ZM256.992 93.6406V99.125H241.711V93.6406H256.992ZM244.922 87.3359H252.82V110.727C252.82 111.398 252.898 111.922 253.055 112.297C253.211 112.656 253.477 112.914 253.852 113.07C254.242 113.211 254.758 113.281 255.398 113.281C255.852 113.281 256.227 113.273 256.523 113.258C256.82 113.227 257.102 113.188 257.367 113.141V118.789C256.695 119.008 255.992 119.172 255.258 119.281C254.523 119.406 253.742 119.469 252.914 119.469C251.227 119.469 249.781 119.203 248.578 118.672C247.391 118.141 246.484 117.305 245.859 116.164C245.234 115.023 244.922 113.539 244.922 111.711V87.3359ZM273.305 112.625V102.172C273.305 101.453 273.203 100.836 273 100.32C272.797 99.8047 272.477 99.4062 272.039 99.125C271.602 98.8281 271.016 98.6797 270.281 98.6797C269.688 98.6797 269.18 98.7812 268.758 98.9844C268.336 99.1875 268.016 99.4922 267.797 99.8984C267.578 100.305 267.469 100.82 267.469 101.445H259.57C259.57 100.273 259.828 99.1875 260.344 98.1875C260.875 97.1719 261.625 96.2891 262.594 95.5391C263.578 94.7891 264.75 94.2109 266.109 93.8047C267.484 93.3828 269.016 93.1719 270.703 93.1719C272.719 93.1719 274.516 93.5078 276.094 94.1797C277.688 94.8516 278.945 95.8594 279.867 97.2031C280.789 98.5312 281.25 100.203 281.25 102.219V112.602C281.25 114.258 281.344 115.516 281.531 116.375C281.719 117.219 281.984 117.961 282.328 118.602V119H274.406C274.031 118.219 273.75 117.266 273.562 116.141C273.391 115 273.305 113.828 273.305 112.625ZM274.266 103.508L274.312 107.727H270.82C270.086 107.727 269.461 107.828 268.945 108.031C268.445 108.234 268.039 108.516 267.727 108.875C267.43 109.219 267.211 109.609 267.07 110.047C266.945 110.484 266.883 110.945 266.883 111.43C266.883 111.898 266.992 112.32 267.211 112.695C267.445 113.055 267.758 113.336 268.148 113.539C268.539 113.742 268.977 113.844 269.461 113.844C270.336 113.844 271.078 113.68 271.688 113.352C272.312 113.008 272.789 112.594 273.117 112.109C273.445 111.625 273.609 111.172 273.609 110.75L275.344 113.984C275.031 114.609 274.672 115.242 274.266 115.883C273.875 116.523 273.383 117.117 272.789 117.664C272.211 118.195 271.5 118.633 270.656 118.977C269.812 119.305 268.789 119.469 267.586 119.469C266.023 119.469 264.586 119.148 263.273 118.508C261.977 117.867 260.938 116.977 260.156 115.836C259.375 114.68 258.984 113.352 258.984 111.852C258.984 110.539 259.219 109.367 259.688 108.336C260.172 107.305 260.898 106.43 261.867 105.711C262.836 104.992 264.07 104.445 265.57 104.07C267.07 103.695 268.836 103.508 270.867 103.508H274.266ZM296.344 113.375C297.078 113.375 297.703 113.242 298.219 112.977C298.75 112.695 299.148 112.305 299.414 111.805C299.695 111.289 299.828 110.672 299.812 109.953H307.242C307.258 111.859 306.789 113.531 305.836 114.969C304.898 116.391 303.617 117.5 301.992 118.297C300.383 119.078 298.562 119.469 296.531 119.469C294.547 119.469 292.812 119.148 291.328 118.508C289.844 117.852 288.602 116.945 287.602 115.789C286.617 114.617 285.875 113.25 285.375 111.688C284.891 110.125 284.648 108.43 284.648 106.602V106.062C284.648 104.234 284.891 102.539 285.375 100.977C285.875 99.3984 286.617 98.0312 287.602 96.875C288.602 95.7031 289.836 94.7969 291.305 94.1562C292.789 93.5 294.516 93.1719 296.484 93.1719C298.594 93.1719 300.453 93.5703 302.062 94.3672C303.688 95.1641 304.961 96.3203 305.883 97.8359C306.805 99.3516 307.258 101.188 307.242 103.344H299.812C299.828 102.578 299.711 101.891 299.461 101.281C299.211 100.672 298.82 100.188 298.289 99.8281C297.773 99.4531 297.109 99.2656 296.297 99.2656C295.484 99.2656 294.828 99.4453 294.328 99.8047C293.828 100.164 293.445 100.664 293.18 101.305C292.93 101.93 292.758 102.648 292.664 103.461C292.586 104.273 292.547 105.141 292.547 106.062V106.602C292.547 107.539 292.586 108.422 292.664 109.25C292.758 110.062 292.938 110.781 293.203 111.406C293.469 112.016 293.852 112.5 294.352 112.859C294.852 113.203 295.516 113.375 296.344 113.375ZM318.586 82.9766V119H310.688V82.9766H318.586ZM334.805 93.6406L323.789 106.555L318.023 112.32L314.578 107.305L319.383 101.047L325.336 93.6406H334.805ZM326.344 119L319.57 107.445L325.406 103.297L335.391 119H326.344ZM350.156 111.875C350.156 111.438 350.008 111.062 349.711 110.75C349.43 110.422 348.93 110.125 348.211 109.859C347.492 109.578 346.484 109.297 345.188 109.016C343.953 108.75 342.789 108.398 341.695 107.961C340.617 107.523 339.672 106.992 338.859 106.367C338.047 105.742 337.406 105 336.938 104.141C336.484 103.281 336.258 102.297 336.258 101.188C336.258 100.109 336.484 99.0938 336.938 98.1406C337.406 97.1719 338.086 96.3203 338.977 95.5859C339.883 94.8359 340.984 94.25 342.281 93.8281C343.578 93.3906 345.055 93.1719 346.711 93.1719C348.992 93.1719 350.961 93.5234 352.617 94.2266C354.273 94.9141 355.547 95.8828 356.438 97.1328C357.344 98.3672 357.797 99.7969 357.797 101.422H349.898C349.898 100.781 349.789 100.234 349.57 99.7812C349.367 99.3281 349.031 98.9844 348.562 98.75C348.094 98.5 347.469 98.375 346.688 98.375C346.141 98.375 345.641 98.4766 345.188 98.6797C344.75 98.8828 344.398 99.1641 344.133 99.5234C343.867 99.8828 343.734 100.305 343.734 100.789C343.734 101.133 343.812 101.445 343.969 101.727C344.141 101.992 344.398 102.242 344.742 102.477C345.086 102.695 345.523 102.898 346.055 103.086C346.586 103.258 347.227 103.414 347.977 103.555C349.68 103.867 351.273 104.312 352.758 104.891C354.242 105.469 355.445 106.289 356.367 107.352C357.305 108.414 357.773 109.844 357.773 111.641C357.773 112.766 357.516 113.805 357 114.758C356.484 115.695 355.742 116.523 354.773 117.242C353.805 117.945 352.641 118.492 351.281 118.883C349.922 119.273 348.391 119.469 346.688 119.469C344.266 119.469 342.219 119.039 340.547 118.18C338.875 117.305 337.609 116.211 336.75 114.898C335.906 113.57 335.484 112.227 335.484 110.867H342.844C342.875 111.648 343.062 112.289 343.406 112.789C343.766 113.289 344.242 113.656 344.836 113.891C345.43 114.125 346.117 114.242 346.898 114.242C347.617 114.242 348.211 114.141 348.68 113.938C349.164 113.734 349.531 113.461 349.781 113.117C350.031 112.758 350.156 112.344 350.156 111.875Z" fill="black"/>
<path d="M1134 0H1348C1356.28 0 1363 6.71573 1363 15V148C1363 156.284 1356.28 163 1348 163H1134V0Z" fill="#054C73"/>
<path fill-rule="evenodd" clip-rule="evenodd" d="M1219.98 53C1219.85 53 1219.73 53.0527 1219.64 53.1464C1219.55 53.2402 1219.5 53.3674 1219.5 53.5V109.5C1219.5 109.633 1219.55 109.76 1219.64 109.854C1219.73 109.947 1219.85 110 1219.98 110H1277.02C1277.15 110 1277.27 109.947 1277.36 109.854C1277.45 109.76 1277.5 109.633 1277.5 109.5V64C1277.5 63.8674 1277.45 63.7402 1277.36 63.6464C1277.27 63.5527 1277.15 63.5 1277.02 63.5H1248.5C1247.65 63.5 1246.84 63.1045 1246.29 62.4206L1238.77 53H1219.98ZM1215.58 48.9038C1216.74 47.6848 1218.33 47 1219.98 47H1240.11C1240.97 47 1241.77 47.3955 1242.32 48.0794L1249.85 57.5H1277.02C1278.67 57.5 1280.26 58.1848 1281.42 59.4038C1282.59 60.6228 1283.25 62.2761 1283.25 64V109.5C1283.25 111.224 1282.59 112.877 1281.42 114.096C1280.26 115.315 1278.67 116 1277.02 116H1219.98C1218.33 116 1216.74 115.315 1215.58 114.096C1214.41 112.877 1213.75 111.224 1213.75 109.5V53.5C1213.75 51.7761 1214.41 50.1228 1215.58 48.9038Z" fill="white"/>
<path fill-rule="evenodd" clip-rule="evenodd" d="M1244.16 75.5251C1245.47 76.892 1245.47 79.108 1244.16 80.4749L1238.15 86.75L1244.16 93.0251C1245.47 94.392 1245.47 96.608 1244.16 97.9749C1242.85 99.3417 1240.73 99.3417 1239.42 97.9749L1231.03 89.2249C1229.72 87.858 1229.72 85.642 1231.03 84.2751L1239.42 75.5251C1240.73 74.1583 1242.85 74.1583 1244.16 75.5251Z" fill="white"/>
<path fill-rule="evenodd" clip-rule="evenodd" d="M1252.12 97.9749C1250.81 96.608 1250.81 94.392 1252.12 93.0251L1258.13 86.75L1252.12 80.4749C1250.81 79.108 1250.81 76.892 1252.12 75.5251C1253.43 74.1583 1255.55 74.1583 1256.86 75.5251L1265.25 84.2751C1266.56 85.642 1266.56 87.858 1265.25 89.2249L1256.86 97.9749C1255.55 99.3417 1253.43 99.3417 1252.12 97.9749Z" fill="white"/>
</svg>
