<svg width="1363" height="163" viewBox="0 0 1363 163" fill="none" xmlns="http://www.w3.org/2000/svg">
<path d="M0 15C0 6.71573 6.71573 0 15 0H37V163H15C6.71573 163 0 156.284 0 148V15Z" fill="#424242"/>
<rect width="1097" height="163" transform="translate(37)" fill="#F0F0F0"/>
<path d="M101.906 53.9219L94.3945 51.2383V48.0859L104.602 52.375V54.6367L101.906 53.9219ZM94.3945 56.1719L101.918 53.4297L104.602 52.7852V55.0352L94.3945 59.3242V56.1719ZM122.391 43.9375V61H118.875V43.9375H122.391ZM129.188 51.2266V53.9688H121.43V51.2266H129.188ZM130.008 43.9375V46.6914H121.43V43.9375H130.008ZM139.078 57.9648V48.3203H142.453V61H139.277L139.078 57.9648ZM139.453 55.3633L140.449 55.3398C140.449 56.1836 140.352 56.9688 140.156 57.6953C139.961 58.4141 139.668 59.0391 139.277 59.5703C138.887 60.0938 138.395 60.5039 137.801 60.8008C137.207 61.0898 136.508 61.2344 135.703 61.2344C135.086 61.2344 134.516 61.1484 133.992 60.9766C133.477 60.7969 133.031 60.5195 132.656 60.1445C132.289 59.7617 132 59.2734 131.789 58.6797C131.586 58.0781 131.484 57.3555 131.484 56.5117V48.3203H134.859V56.5352C134.859 56.9102 134.902 57.2266 134.988 57.4844C135.082 57.7422 135.211 57.9531 135.375 58.1172C135.539 58.2812 135.73 58.3984 135.949 58.4688C136.176 58.5391 136.426 58.5742 136.699 58.5742C137.395 58.5742 137.941 58.4336 138.34 58.1523C138.746 57.8711 139.031 57.4883 139.195 57.0039C139.367 56.5117 139.453 55.9648 139.453 55.3633ZM148.406 51.0859V61H145.031V48.3203H148.207L148.406 51.0859ZM152.227 48.2383L152.168 51.3672C152.004 51.3438 151.805 51.3242 151.57 51.3086C151.344 51.2852 151.137 51.2734 150.949 51.2734C150.473 51.2734 150.059 51.3359 149.707 51.4609C149.363 51.5781 149.074 51.7539 148.84 51.9883C148.613 52.2227 148.441 52.5078 148.324 52.8438C148.215 53.1797 148.152 53.5625 148.137 53.9922L147.457 53.7812C147.457 52.9609 147.539 52.207 147.703 51.5195C147.867 50.8242 148.105 50.2188 148.418 49.7031C148.738 49.1875 149.129 48.7891 149.59 48.5078C150.051 48.2266 150.578 48.0859 151.172 48.0859C151.359 48.0859 151.551 48.1016 151.746 48.1328C151.941 48.1562 152.102 48.1914 152.227 48.2383ZM157.125 51.0273V61H153.75V48.3203H156.914L157.125 51.0273ZM156.633 54.2148H155.719C155.719 53.2773 155.84 52.4336 156.082 51.6836C156.324 50.9258 156.664 50.2812 157.102 49.75C157.539 49.2109 158.059 48.8008 158.66 48.5195C159.27 48.2305 159.949 48.0859 160.699 48.0859C161.293 48.0859 161.836 48.1719 162.328 48.3438C162.82 48.5156 163.242 48.7891 163.594 49.1641C163.953 49.5391 164.227 50.0352 164.414 50.6523C164.609 51.2695 164.707 52.0234 164.707 52.9141V61H161.309V52.9023C161.309 52.3398 161.23 51.9023 161.074 51.5898C160.918 51.2773 160.688 51.0586 160.383 50.9336C160.086 50.8008 159.719 50.7344 159.281 50.7344C158.828 50.7344 158.434 50.8242 158.098 51.0039C157.77 51.1836 157.496 51.4336 157.277 51.7539C157.066 52.0664 156.906 52.4336 156.797 52.8555C156.688 53.2773 156.633 53.7305 156.633 54.2148ZM170.836 48.3203V61H167.449V48.3203H170.836ZM167.238 45.0156C167.238 44.5234 167.41 44.1172 167.754 43.7969C168.098 43.4766 168.559 43.3164 169.137 43.3164C169.707 43.3164 170.164 43.4766 170.508 43.7969C170.859 44.1172 171.035 44.5234 171.035 45.0156C171.035 45.5078 170.859 45.9141 170.508 46.2344C170.164 46.5547 169.707 46.7148 169.137 46.7148C168.559 46.7148 168.098 46.5547 167.754 46.2344C167.41 45.9141 167.238 45.5078 167.238 45.0156ZM182.719 56.5352C182.719 56.2305 182.672 55.957 182.578 55.7148C182.492 55.4648 182.328 55.2383 182.086 55.0352C181.844 54.8242 181.504 54.6172 181.066 54.4141C180.629 54.2109 180.062 54 179.367 53.7812C178.594 53.5312 177.859 53.25 177.164 52.9375C176.477 52.625 175.867 52.2617 175.336 51.8477C174.812 51.4258 174.398 50.9375 174.094 50.3828C173.797 49.8281 173.648 49.1836 173.648 48.4492C173.648 47.7383 173.805 47.0938 174.117 46.5156C174.43 45.9297 174.867 45.4297 175.43 45.0156C175.992 44.5938 176.656 44.2695 177.422 44.043C178.195 43.8164 179.043 43.7031 179.965 43.7031C181.223 43.7031 182.32 43.9297 183.258 44.3828C184.195 44.8359 184.922 45.457 185.438 46.2461C185.961 47.0352 186.223 47.9375 186.223 48.9531H182.73C182.73 48.4531 182.625 48.0156 182.414 47.6406C182.211 47.2578 181.898 46.957 181.477 46.7383C181.062 46.5195 180.539 46.4102 179.906 46.4102C179.297 46.4102 178.789 46.5039 178.383 46.6914C177.977 46.8711 177.672 47.1172 177.469 47.4297C177.266 47.7344 177.164 48.0781 177.164 48.4609C177.164 48.75 177.234 49.0117 177.375 49.2461C177.523 49.4805 177.742 49.6992 178.031 49.9023C178.32 50.1055 178.676 50.2969 179.098 50.4766C179.52 50.6562 180.008 50.832 180.562 51.0039C181.492 51.2852 182.309 51.6016 183.012 51.9531C183.723 52.3047 184.316 52.6992 184.793 53.1367C185.27 53.5742 185.629 54.0703 185.871 54.625C186.113 55.1797 186.234 55.8086 186.234 56.5117C186.234 57.2539 186.09 57.918 185.801 58.5039C185.512 59.0898 185.094 59.5859 184.547 59.9922C184 60.3984 183.348 60.707 182.59 60.918C181.832 61.1289 180.984 61.2344 180.047 61.2344C179.203 61.2344 178.371 61.125 177.551 60.9062C176.73 60.6797 175.984 60.3398 175.312 59.8867C174.648 59.4336 174.117 58.8555 173.719 58.1523C173.32 57.4492 173.121 56.6172 173.121 55.6562H176.648C176.648 56.1875 176.73 56.6367 176.895 57.0039C177.059 57.3711 177.289 57.668 177.586 57.8945C177.891 58.1211 178.25 58.2852 178.664 58.3867C179.086 58.4883 179.547 58.5391 180.047 58.5391C180.656 58.5391 181.156 58.4531 181.547 58.2812C181.945 58.1094 182.238 57.8711 182.426 57.5664C182.621 57.2617 182.719 56.918 182.719 56.5352ZM191.789 50.7578V65.875H188.414V48.3203H191.543L191.789 50.7578ZM199.816 54.5195V54.7656C199.816 55.6875 199.707 56.543 199.488 57.332C199.277 58.1211 198.965 58.8086 198.551 59.3945C198.137 59.9727 197.621 60.4258 197.004 60.7539C196.395 61.0742 195.691 61.2344 194.895 61.2344C194.121 61.2344 193.449 61.0781 192.879 60.7656C192.309 60.4531 191.828 60.0156 191.438 59.4531C191.055 58.8828 190.746 58.2227 190.512 57.4727C190.277 56.7227 190.098 55.918 189.973 55.0586V54.4141C190.098 53.4922 190.277 52.6484 190.512 51.8828C190.746 51.1094 191.055 50.4414 191.438 49.8789C191.828 49.3086 192.305 48.8672 192.867 48.5547C193.438 48.2422 194.105 48.0859 194.871 48.0859C195.676 48.0859 196.383 48.2383 196.992 48.543C197.609 48.8477 198.125 49.2852 198.539 49.8555C198.961 50.4258 199.277 51.1055 199.488 51.8945C199.707 52.6836 199.816 53.5586 199.816 54.5195ZM196.43 54.7656V54.5195C196.43 53.9805 196.383 53.4844 196.289 53.0312C196.203 52.5703 196.062 52.168 195.867 51.8242C195.68 51.4805 195.43 51.2148 195.117 51.0273C194.812 50.832 194.441 50.7344 194.004 50.7344C193.543 50.7344 193.148 50.8086 192.82 50.957C192.5 51.1055 192.238 51.3203 192.035 51.6016C191.832 51.8828 191.68 52.2188 191.578 52.6094C191.477 53 191.414 53.4414 191.391 53.9336V55.5625C191.43 56.1406 191.539 56.6602 191.719 57.1211C191.898 57.5742 192.176 57.9336 192.551 58.1992C192.926 58.4648 193.418 58.5977 194.027 58.5977C194.473 58.5977 194.848 58.5 195.152 58.3047C195.457 58.1016 195.703 57.8242 195.891 57.4727C196.086 57.1211 196.223 56.7148 196.301 56.2539C196.387 55.793 196.43 55.2969 196.43 54.7656ZM205.207 43V61H201.832V43H205.207ZM204.727 54.2148H203.801C203.809 53.332 203.926 52.5195 204.152 51.7773C204.379 51.0273 204.703 50.3789 205.125 49.832C205.547 49.2773 206.051 48.8477 206.637 48.543C207.23 48.2383 207.887 48.0859 208.605 48.0859C209.23 48.0859 209.797 48.1758 210.305 48.3555C210.82 48.5273 211.262 48.8086 211.629 49.1992C212.004 49.582 212.293 50.0859 212.496 50.7109C212.699 51.3359 212.801 52.0938 212.801 52.9844V61H209.402V52.9609C209.402 52.3984 209.32 51.957 209.156 51.6367C209 51.3086 208.77 51.0781 208.465 50.9453C208.168 50.8047 207.801 50.7344 207.363 50.7344C206.879 50.7344 206.465 50.8242 206.121 51.0039C205.785 51.1836 205.516 51.4336 205.312 51.7539C205.109 52.0664 204.961 52.4336 204.867 52.8555C204.773 53.2773 204.727 53.7305 204.727 54.2148ZM221.203 61.2344C220.219 61.2344 219.336 61.0781 218.555 60.7656C217.773 60.4453 217.109 60.0039 216.562 59.4414C216.023 58.8789 215.609 58.2266 215.32 57.4844C215.031 56.7344 214.887 55.9375 214.887 55.0938V54.625C214.887 53.6641 215.023 52.7852 215.297 51.9883C215.57 51.1914 215.961 50.5 216.469 49.9141C216.984 49.3281 217.609 48.8789 218.344 48.5664C219.078 48.2461 219.906 48.0859 220.828 48.0859C221.727 48.0859 222.523 48.2344 223.219 48.5312C223.914 48.8281 224.496 49.25 224.965 49.7969C225.441 50.3438 225.801 51 226.043 51.7656C226.285 52.5234 226.406 53.3672 226.406 54.2969V55.7031H216.328V53.4531H223.09V53.1953C223.09 52.7266 223.004 52.3086 222.832 51.9414C222.668 51.5664 222.418 51.2695 222.082 51.0508C221.746 50.832 221.316 50.7227 220.793 50.7227C220.348 50.7227 219.965 50.8203 219.645 51.0156C219.324 51.2109 219.062 51.4844 218.859 51.8359C218.664 52.1875 218.516 52.6016 218.414 53.0781C218.32 53.5469 218.273 54.0625 218.273 54.625V55.0938C218.273 55.6016 218.344 56.0703 218.484 56.5C218.633 56.9297 218.84 57.3008 219.105 57.6133C219.379 57.9258 219.707 58.168 220.09 58.3398C220.48 58.5117 220.922 58.5977 221.414 58.5977C222.023 58.5977 222.59 58.4805 223.113 58.2461C223.645 58.0039 224.102 57.6406 224.484 57.1562L226.125 58.9375C225.859 59.3203 225.496 59.6875 225.035 60.0391C224.582 60.3906 224.035 60.6797 223.395 60.9062C222.754 61.125 222.023 61.2344 221.203 61.2344ZM231.703 51.0859V61H228.328V48.3203H231.504L231.703 51.0859ZM235.523 48.2383L235.465 51.3672C235.301 51.3438 235.102 51.3242 234.867 51.3086C234.641 51.2852 234.434 51.2734 234.246 51.2734C233.77 51.2734 233.355 51.3359 233.004 51.4609C232.66 51.5781 232.371 51.7539 232.137 51.9883C231.91 52.2227 231.738 52.5078 231.621 52.8438C231.512 53.1797 231.449 53.5625 231.434 53.9922L230.754 53.7812C230.754 52.9609 230.836 52.207 231 51.5195C231.164 50.8242 231.402 50.2188 231.715 49.7031C232.035 49.1875 232.426 48.7891 232.887 48.5078C233.348 48.2266 233.875 48.0859 234.469 48.0859C234.656 48.0859 234.848 48.1016 235.043 48.1328C235.238 48.1562 235.398 48.1914 235.523 48.2383ZM242.719 61.2344C241.734 61.2344 240.852 61.0781 240.07 60.7656C239.289 60.4453 238.625 60.0039 238.078 59.4414C237.539 58.8789 237.125 58.2266 236.836 57.4844C236.547 56.7344 236.402 55.9375 236.402 55.0938V54.625C236.402 53.6641 236.539 52.7852 236.812 51.9883C237.086 51.1914 237.477 50.5 237.984 49.9141C238.5 49.3281 239.125 48.8789 239.859 48.5664C240.594 48.2461 241.422 48.0859 242.344 48.0859C243.242 48.0859 244.039 48.2344 244.734 48.5312C245.43 48.8281 246.012 49.25 246.48 49.7969C246.957 50.3438 247.316 51 247.559 51.7656C247.801 52.5234 247.922 53.3672 247.922 54.2969V55.7031H237.844V53.4531H244.605V53.1953C244.605 52.7266 244.52 52.3086 244.348 51.9414C244.184 51.5664 243.934 51.2695 243.598 51.0508C243.262 50.832 242.832 50.7227 242.309 50.7227C241.863 50.7227 241.48 50.8203 241.16 51.0156C240.84 51.2109 240.578 51.4844 240.375 51.8359C240.18 52.1875 240.031 52.6016 239.93 53.0781C239.836 53.5469 239.789 54.0625 239.789 54.625V55.0938C239.789 55.6016 239.859 56.0703 240 56.5C240.148 56.9297 240.355 57.3008 240.621 57.6133C240.895 57.9258 241.223 58.168 241.605 58.3398C241.996 58.5117 242.438 58.5977 242.93 58.5977C243.539 58.5977 244.105 58.4805 244.629 58.2461C245.16 58.0039 245.617 57.6406 246 57.1562L247.641 58.9375C247.375 59.3203 247.012 59.6875 246.551 60.0391C246.098 60.3906 245.551 60.6797 244.91 60.9062C244.27 61.125 243.539 61.2344 242.719 61.2344Z" fill="#888888"/>
<path d="M104.344 84.875V119H96.1406V84.875H104.344ZM117.727 99.0078V119H109.828V93.6406H117.234L117.727 99.0078ZM116.766 105.453L114.961 105.5C114.961 103.719 115.172 102.078 115.594 100.578C116.016 99.0781 116.641 97.7734 117.469 96.6641C118.297 95.5547 119.312 94.6953 120.516 94.0859C121.734 93.4766 123.141 93.1719 124.734 93.1719C125.844 93.1719 126.852 93.3438 127.758 93.6875C128.664 94.0156 129.445 94.5391 130.102 95.2578C130.758 95.9609 131.258 96.8828 131.602 98.0234C131.961 99.1484 132.141 100.5 132.141 102.078V119H124.242V103.086C124.242 102.008 124.117 101.195 123.867 100.648C123.633 100.102 123.289 99.7344 122.836 99.5469C122.383 99.3594 121.828 99.2656 121.172 99.2656C120.484 99.2656 119.867 99.4219 119.32 99.7344C118.773 100.047 118.305 100.484 117.914 101.047C117.539 101.594 117.25 102.242 117.047 102.992C116.859 103.742 116.766 104.562 116.766 105.453ZM131.25 105.453L129.047 105.5C129.047 103.719 129.242 102.078 129.633 100.578C130.039 99.0781 130.641 97.7734 131.438 96.6641C132.25 95.5547 133.258 94.6953 134.461 94.0859C135.664 93.4766 137.062 93.1719 138.656 93.1719C139.812 93.1719 140.875 93.3438 141.844 93.6875C142.812 94.0312 143.648 94.5859 144.352 95.3516C145.055 96.1172 145.602 97.1328 145.992 98.3984C146.383 99.6484 146.578 101.195 146.578 103.039V119H138.656V103.039C138.656 101.992 138.531 101.203 138.281 100.672C138.047 100.125 137.703 99.7578 137.25 99.5703C136.797 99.3672 136.258 99.2656 135.633 99.2656C134.883 99.2656 134.234 99.4219 133.688 99.7344C133.141 100.047 132.68 100.484 132.305 101.047C131.945 101.594 131.68 102.242 131.508 102.992C131.336 103.742 131.25 104.562 131.25 105.453ZM159.07 98.5156V128.75H151.172V93.6406H158.531L159.07 98.5156ZM174.633 106.016V106.508C174.633 108.352 174.422 110.062 174 111.641C173.578 113.219 172.953 114.594 172.125 115.766C171.297 116.938 170.266 117.852 169.031 118.508C167.812 119.148 166.398 119.469 164.789 119.469C163.273 119.469 161.969 119.133 160.875 118.461C159.781 117.789 158.867 116.859 158.133 115.672C157.398 114.484 156.805 113.125 156.352 111.594C155.898 110.062 155.539 108.445 155.273 106.742V106.109C155.539 104.281 155.898 102.586 156.352 101.023C156.805 99.4453 157.398 98.0703 158.133 96.8984C158.867 95.7266 159.773 94.8125 160.852 94.1562C161.945 93.5 163.25 93.1719 164.766 93.1719C166.375 93.1719 167.789 93.4766 169.008 94.0859C170.242 94.6953 171.273 95.5703 172.102 96.7109C172.945 97.8359 173.578 99.1875 174 100.766C174.422 102.344 174.633 104.094 174.633 106.016ZM166.734 106.508V106.016C166.734 105.031 166.664 104.133 166.523 103.32C166.383 102.492 166.156 101.773 165.844 101.164C165.547 100.555 165.148 100.086 164.648 99.7578C164.148 99.4297 163.531 99.2656 162.797 99.2656C161.953 99.2656 161.242 99.3984 160.664 99.6641C160.102 99.9141 159.648 100.305 159.305 100.836C158.977 101.352 158.742 102 158.602 102.781C158.477 103.547 158.422 104.445 158.438 105.477V107.398C158.406 108.586 158.523 109.633 158.789 110.539C159.055 111.43 159.516 112.125 160.172 112.625C160.828 113.125 161.719 113.375 162.844 113.375C163.594 113.375 164.219 113.203 164.719 112.859C165.219 112.5 165.617 112.008 165.914 111.383C166.211 110.742 166.422 110.008 166.547 109.18C166.672 108.352 166.734 107.461 166.734 106.508ZM186.492 83V119H178.57V83H186.492ZM203.648 119.469C201.586 119.469 199.742 119.148 198.117 118.508C196.492 117.852 195.117 116.953 193.992 115.812C192.883 114.672 192.031 113.359 191.438 111.875C190.859 110.391 190.57 108.82 190.57 107.164V106.273C190.57 104.414 190.828 102.695 191.344 101.117C191.859 99.5234 192.625 98.1328 193.641 96.9453C194.656 95.7578 195.93 94.8359 197.461 94.1797C198.992 93.5078 200.773 93.1719 202.805 93.1719C204.602 93.1719 206.211 93.4609 207.633 94.0391C209.055 94.6172 210.258 95.4453 211.242 96.5234C212.242 97.6016 213 98.9062 213.516 100.438C214.047 101.969 214.312 103.688 214.312 105.594V108.805H193.594V103.859H206.602V103.25C206.617 102.406 206.469 101.688 206.156 101.094C205.859 100.5 205.422 100.047 204.844 99.7344C204.266 99.4219 203.562 99.2656 202.734 99.2656C201.875 99.2656 201.164 99.4531 200.602 99.8281C200.055 100.203 199.625 100.719 199.312 101.375C199.016 102.016 198.805 102.758 198.68 103.602C198.555 104.445 198.492 105.336 198.492 106.273V107.164C198.492 108.102 198.617 108.953 198.867 109.719C199.133 110.484 199.508 111.141 199.992 111.688C200.492 112.219 201.086 112.633 201.773 112.93C202.477 113.227 203.273 113.375 204.164 113.375C205.242 113.375 206.305 113.172 207.352 112.766C208.398 112.359 209.297 111.688 210.047 110.75L213.633 115.016C213.117 115.75 212.383 116.461 211.43 117.148C210.492 117.836 209.367 118.398 208.055 118.836C206.742 119.258 205.273 119.469 203.648 119.469ZM225.492 99.0078V119H217.594V93.6406H225L225.492 99.0078ZM224.531 105.453L222.727 105.5C222.727 103.719 222.938 102.078 223.359 100.578C223.781 99.0781 224.406 97.7734 225.234 96.6641C226.062 95.5547 227.078 94.6953 228.281 94.0859C229.5 93.4766 230.906 93.1719 232.5 93.1719C233.609 93.1719 234.617 93.3438 235.523 93.6875C236.43 94.0156 237.211 94.5391 237.867 95.2578C238.523 95.9609 239.023 96.8828 239.367 98.0234C239.727 99.1484 239.906 100.5 239.906 102.078V119H232.008V103.086C232.008 102.008 231.883 101.195 231.633 100.648C231.398 100.102 231.055 99.7344 230.602 99.5469C230.148 99.3594 229.594 99.2656 228.938 99.2656C228.25 99.2656 227.633 99.4219 227.086 99.7344C226.539 100.047 226.07 100.484 225.68 101.047C225.305 101.594 225.016 102.242 224.812 102.992C224.625 103.742 224.531 104.562 224.531 105.453ZM239.016 105.453L236.812 105.5C236.812 103.719 237.008 102.078 237.398 100.578C237.805 99.0781 238.406 97.7734 239.203 96.6641C240.016 95.5547 241.023 94.6953 242.227 94.0859C243.43 93.4766 244.828 93.1719 246.422 93.1719C247.578 93.1719 248.641 93.3438 249.609 93.6875C250.578 94.0312 251.414 94.5859 252.117 95.3516C252.82 96.1172 253.367 97.1328 253.758 98.3984C254.148 99.6484 254.344 101.195 254.344 103.039V119H246.422V103.039C246.422 101.992 246.297 101.203 246.047 100.672C245.812 100.125 245.469 99.7578 245.016 99.5703C244.562 99.3672 244.023 99.2656 243.398 99.2656C242.648 99.2656 242 99.4219 241.453 99.7344C240.906 100.047 240.445 100.484 240.07 101.047C239.711 101.594 239.445 102.242 239.273 102.992C239.102 103.742 239.016 104.562 239.016 105.453ZM271.148 119.469C269.086 119.469 267.242 119.148 265.617 118.508C263.992 117.852 262.617 116.953 261.492 115.812C260.383 114.672 259.531 113.359 258.938 111.875C258.359 110.391 258.07 108.82 258.07 107.164V106.273C258.07 104.414 258.328 102.695 258.844 101.117C259.359 99.5234 260.125 98.1328 261.141 96.9453C262.156 95.7578 263.43 94.8359 264.961 94.1797C266.492 93.5078 268.273 93.1719 270.305 93.1719C272.102 93.1719 273.711 93.4609 275.133 94.0391C276.555 94.6172 277.758 95.4453 278.742 96.5234C279.742 97.6016 280.5 98.9062 281.016 100.438C281.547 101.969 281.812 103.688 281.812 105.594V108.805H261.094V103.859H274.102V103.25C274.117 102.406 273.969 101.688 273.656 101.094C273.359 100.5 272.922 100.047 272.344 99.7344C271.766 99.4219 271.062 99.2656 270.234 99.2656C269.375 99.2656 268.664 99.4531 268.102 99.8281C267.555 100.203 267.125 100.719 266.812 101.375C266.516 102.016 266.305 102.758 266.18 103.602C266.055 104.445 265.992 105.336 265.992 106.273V107.164C265.992 108.102 266.117 108.953 266.367 109.719C266.633 110.484 267.008 111.141 267.492 111.688C267.992 112.219 268.586 112.633 269.273 112.93C269.977 113.227 270.773 113.375 271.664 113.375C272.742 113.375 273.805 113.172 274.852 112.766C275.898 112.359 276.797 111.688 277.547 110.75L281.133 115.016C280.617 115.75 279.883 116.461 278.93 117.148C277.992 117.836 276.867 118.398 275.555 118.836C274.242 119.258 272.773 119.469 271.148 119.469ZM292.781 99.0547V119H284.883V93.6406H292.289L292.781 99.0547ZM291.844 105.453L289.992 105.5C289.992 103.562 290.227 101.836 290.695 100.32C291.164 98.7891 291.828 97.4922 292.688 96.4297C293.547 95.3672 294.57 94.5625 295.758 94.0156C296.961 93.4531 298.297 93.1719 299.766 93.1719C300.938 93.1719 302.008 93.3438 302.977 93.6875C303.961 94.0312 304.805 94.5859 305.508 95.3516C306.227 96.1172 306.773 97.1328 307.148 98.3984C307.539 99.6484 307.734 101.195 307.734 103.039V119H299.789V103.016C299.789 102 299.648 101.227 299.367 100.695C299.086 100.148 298.68 99.7734 298.148 99.5703C297.617 99.3672 296.969 99.2656 296.203 99.2656C295.391 99.2656 294.703 99.4219 294.141 99.7344C293.578 100.047 293.125 100.484 292.781 101.047C292.453 101.594 292.211 102.242 292.055 102.992C291.914 103.742 291.844 104.562 291.844 105.453ZM325.477 93.6406V99.125H310.195V93.6406H325.477ZM313.406 87.3359H321.305V110.727C321.305 111.398 321.383 111.922 321.539 112.297C321.695 112.656 321.961 112.914 322.336 113.07C322.727 113.211 323.242 113.281 323.883 113.281C324.336 113.281 324.711 113.273 325.008 113.258C325.305 113.227 325.586 113.188 325.852 113.141V118.789C325.18 119.008 324.477 119.172 323.742 119.281C323.008 119.406 322.227 119.469 321.398 119.469C319.711 119.469 318.266 119.203 317.062 118.672C315.875 118.141 314.969 117.305 314.344 116.164C313.719 115.023 313.406 113.539 313.406 111.711V87.3359ZM341.789 112.625V102.172C341.789 101.453 341.688 100.836 341.484 100.32C341.281 99.8047 340.961 99.4062 340.523 99.125C340.086 98.8281 339.5 98.6797 338.766 98.6797C338.172 98.6797 337.664 98.7812 337.242 98.9844C336.82 99.1875 336.5 99.4922 336.281 99.8984C336.062 100.305 335.953 100.82 335.953 101.445H328.055C328.055 100.273 328.312 99.1875 328.828 98.1875C329.359 97.1719 330.109 96.2891 331.078 95.5391C332.062 94.7891 333.234 94.2109 334.594 93.8047C335.969 93.3828 337.5 93.1719 339.188 93.1719C341.203 93.1719 343 93.5078 344.578 94.1797C346.172 94.8516 347.43 95.8594 348.352 97.2031C349.273 98.5312 349.734 100.203 349.734 102.219V112.602C349.734 114.258 349.828 115.516 350.016 116.375C350.203 117.219 350.469 117.961 350.812 118.602V119H342.891C342.516 118.219 342.234 117.266 342.047 116.141C341.875 115 341.789 113.828 341.789 112.625ZM342.75 103.508L342.797 107.727H339.305C338.57 107.727 337.945 107.828 337.43 108.031C336.93 108.234 336.523 108.516 336.211 108.875C335.914 109.219 335.695 109.609 335.555 110.047C335.43 110.484 335.367 110.945 335.367 111.43C335.367 111.898 335.477 112.32 335.695 112.695C335.93 113.055 336.242 113.336 336.633 113.539C337.023 113.742 337.461 113.844 337.945 113.844C338.82 113.844 339.562 113.68 340.172 113.352C340.797 113.008 341.273 112.594 341.602 112.109C341.93 111.625 342.094 111.172 342.094 110.75L343.828 113.984C343.516 114.609 343.156 115.242 342.75 115.883C342.359 116.523 341.867 117.117 341.273 117.664C340.695 118.195 339.984 118.633 339.141 118.977C338.297 119.305 337.273 119.469 336.07 119.469C334.508 119.469 333.07 119.148 331.758 118.508C330.461 117.867 329.422 116.977 328.641 115.836C327.859 114.68 327.469 113.352 327.469 111.852C327.469 110.539 327.703 109.367 328.172 108.336C328.656 107.305 329.383 106.43 330.352 105.711C331.32 104.992 332.555 104.445 334.055 104.07C335.555 103.695 337.32 103.508 339.352 103.508H342.75ZM367.477 93.6406V99.125H352.195V93.6406H367.477ZM355.406 87.3359H363.305V110.727C363.305 111.398 363.383 111.922 363.539 112.297C363.695 112.656 363.961 112.914 364.336 113.07C364.727 113.211 365.242 113.281 365.883 113.281C366.336 113.281 366.711 113.273 367.008 113.258C367.305 113.227 367.586 113.188 367.852 113.141V118.789C367.18 119.008 366.477 119.172 365.742 119.281C365.008 119.406 364.227 119.469 363.398 119.469C361.711 119.469 360.266 119.203 359.062 118.672C357.875 118.141 356.969 117.305 356.344 116.164C355.719 115.023 355.406 113.539 355.406 111.711V87.3359ZM378.961 93.6406V119H371.039V93.6406H378.961ZM370.57 87.1016C370.57 85.9766 370.977 85.0547 371.789 84.3359C372.602 83.6172 373.656 83.2578 374.953 83.2578C376.25 83.2578 377.305 83.6172 378.117 84.3359C378.93 85.0547 379.336 85.9766 379.336 87.1016C379.336 88.2266 378.93 89.1484 378.117 89.8672C377.305 90.5859 376.25 90.9453 374.953 90.9453C373.656 90.9453 372.602 90.5859 371.789 89.8672C370.977 89.1484 370.57 88.2266 370.57 87.1016ZM382.852 106.578V106.086C382.852 104.227 383.117 102.516 383.648 100.953C384.18 99.375 384.961 98.0078 385.992 96.8516C387.023 95.6953 388.297 94.7969 389.812 94.1562C391.328 93.5 393.078 93.1719 395.062 93.1719C397.062 93.1719 398.82 93.5 400.336 94.1562C401.867 94.7969 403.148 95.6953 404.18 96.8516C405.211 98.0078 405.992 99.375 406.523 100.953C407.055 102.516 407.32 104.227 407.32 106.086V106.578C407.32 108.422 407.055 110.133 406.523 111.711C405.992 113.273 405.211 114.641 404.18 115.812C403.148 116.969 401.875 117.867 400.359 118.508C398.844 119.148 397.094 119.469 395.109 119.469C393.125 119.469 391.367 119.148 389.836 118.508C388.305 117.867 387.023 116.969 385.992 115.812C384.961 114.641 384.18 113.273 383.648 111.711C383.117 110.133 382.852 108.422 382.852 106.578ZM390.75 106.086V106.578C390.75 107.531 390.82 108.422 390.961 109.25C391.102 110.078 391.336 110.805 391.664 111.43C391.992 112.039 392.438 112.516 393 112.859C393.562 113.203 394.266 113.375 395.109 113.375C395.938 113.375 396.625 113.203 397.172 112.859C397.734 112.516 398.18 112.039 398.508 111.43C398.836 110.805 399.07 110.078 399.211 109.25C399.352 108.422 399.422 107.531 399.422 106.578V106.086C399.422 105.164 399.352 104.297 399.211 103.484C399.07 102.656 398.836 101.93 398.508 101.305C398.18 100.664 397.734 100.164 397.172 99.8047C396.609 99.4453 395.906 99.2656 395.062 99.2656C394.234 99.2656 393.539 99.4453 392.977 99.8047C392.43 100.164 391.992 100.664 391.664 101.305C391.336 101.93 391.102 102.656 390.961 103.484C390.82 104.297 390.75 105.164 390.75 106.086ZM418.594 99.0547V119H410.695V93.6406H418.102L418.594 99.0547ZM417.656 105.453L415.805 105.5C415.805 103.562 416.039 101.836 416.508 100.32C416.977 98.7891 417.641 97.4922 418.5 96.4297C419.359 95.3672 420.383 94.5625 421.57 94.0156C422.773 93.4531 424.109 93.1719 425.578 93.1719C426.75 93.1719 427.82 93.3438 428.789 93.6875C429.773 94.0312 430.617 94.5859 431.32 95.3516C432.039 96.1172 432.586 97.1328 432.961 98.3984C433.352 99.6484 433.547 101.195 433.547 103.039V119H425.602V103.016C425.602 102 425.461 101.227 425.18 100.695C424.898 100.148 424.492 99.7734 423.961 99.5703C423.43 99.3672 422.781 99.2656 422.016 99.2656C421.203 99.2656 420.516 99.4219 419.953 99.7344C419.391 100.047 418.938 100.484 418.594 101.047C418.266 101.594 418.023 102.242 417.867 102.992C417.727 103.742 417.656 104.562 417.656 105.453Z" fill="black"/>
<path d="M1134 0H1348C1356.28 0 1363 6.71573 1363 15V148C1363 156.284 1356.28 163 1348 163H1134V0Z" fill="#054C73"/>
<path d="M1280.07 47.5H1216.93L1214.5 49.9286V113.071L1216.93 115.5H1280.07L1282.5 113.071V49.9286L1280.07 47.5ZM1277.64 110.643H1233.93V100.929H1245.1C1246.56 103.843 1249.96 105.786 1253.36 105.786C1258.7 105.786 1263.07 101.414 1263.07 96.0714C1263.07 90.7286 1258.7 86.3571 1253.36 86.3571C1248.01 86.3571 1243.64 90.7286 1243.64 96.0714H1229.07V110.643H1219.36V52.3571H1229.07V63.5286C1226.16 64.9857 1224.21 68.3857 1224.21 71.7857C1224.21 77.1286 1228.59 81.5 1233.93 81.5C1239.27 81.5 1243.64 77.1286 1243.64 71.7857H1253.36C1253.36 77.1286 1257.73 81.5 1263.07 81.5C1268.41 81.5 1272.79 77.1286 1272.79 71.7857C1272.79 66.4429 1268.41 62.0714 1263.07 62.0714C1259.67 62.0714 1256.27 64.0143 1254.81 66.9286H1242.19C1240.73 64.0143 1237.33 62.0714 1233.93 62.0714V52.3571H1277.64V110.643ZM1248.5 96.0714C1248.5 93.1571 1250.44 91.2143 1253.36 91.2143C1256.27 91.2143 1258.21 93.1571 1258.21 96.0714C1258.21 98.9857 1256.27 100.929 1253.36 100.929C1250.44 100.929 1248.5 98.9857 1248.5 96.0714ZM1233.93 66.9286C1236.84 66.9286 1238.79 68.8714 1238.79 71.7857C1238.79 74.7 1236.84 76.6429 1233.93 76.6429C1231.01 76.6429 1229.07 74.7 1229.07 71.7857C1229.07 68.8714 1231.01 66.9286 1233.93 66.9286ZM1263.07 66.9286C1265.99 66.9286 1267.93 68.8714 1267.93 71.7857C1267.93 74.7 1265.99 76.6429 1263.07 76.6429C1260.16 76.6429 1258.21 74.7 1258.21 71.7857C1258.21 68.8714 1260.16 66.9286 1263.07 66.9286Z" fill="white"/>
</svg>
