<svg width="1363" height="163" viewBox="0 0 1363 163" fill="none" xmlns="http://www.w3.org/2000/svg">
<path d="M0 15C0 6.71573 6.71573 0 15 0H37V163H15C6.71573 163 0 156.284 0 148V15Z" fill="#424242"/>
<rect width="1097" height="163" transform="translate(37)" fill="#F0F0F0"/>
<path d="M101.906 53.9219L94.3945 51.2383V48.0859L104.602 52.375V54.6367L101.906 53.9219ZM94.3945 56.1719L101.918 53.4297L104.602 52.7852V55.0352L94.3945 59.3242V56.1719ZM116.414 43.9375V61H112.898V43.9375H116.414ZM123.211 51.2266V53.9688H115.453V51.2266H123.211ZM124.031 43.9375V46.6914H115.453V43.9375H124.031ZM133.102 57.9648V48.3203H136.477V61H133.301L133.102 57.9648ZM133.477 55.3633L134.473 55.3398C134.473 56.1836 134.375 56.9688 134.18 57.6953C133.984 58.4141 133.691 59.0391 133.301 59.5703C132.91 60.0938 132.418 60.5039 131.824 60.8008C131.23 61.0898 130.531 61.2344 129.727 61.2344C129.109 61.2344 128.539 61.1484 128.016 60.9766C127.5 60.7969 127.055 60.5195 126.68 60.1445C126.312 59.7617 126.023 59.2734 125.812 58.6797C125.609 58.0781 125.508 57.3555 125.508 56.5117V48.3203H128.883V56.5352C128.883 56.9102 128.926 57.2266 129.012 57.4844C129.105 57.7422 129.234 57.9531 129.398 58.1172C129.562 58.2812 129.754 58.3984 129.973 58.4688C130.199 58.5391 130.449 58.5742 130.723 58.5742C131.418 58.5742 131.965 58.4336 132.363 58.1523C132.77 57.8711 133.055 57.4883 133.219 57.0039C133.391 56.5117 133.477 55.9648 133.477 55.3633ZM142.43 51.0859V61H139.055V48.3203H142.23L142.43 51.0859ZM146.25 48.2383L146.191 51.3672C146.027 51.3438 145.828 51.3242 145.594 51.3086C145.367 51.2852 145.16 51.2734 144.973 51.2734C144.496 51.2734 144.082 51.3359 143.73 51.4609C143.387 51.5781 143.098 51.7539 142.863 51.9883C142.637 52.2227 142.465 52.5078 142.348 52.8438C142.238 53.1797 142.176 53.5625 142.16 53.9922L141.48 53.7812C141.48 52.9609 141.562 52.207 141.727 51.5195C141.891 50.8242 142.129 50.2188 142.441 49.7031C142.762 49.1875 143.152 48.7891 143.613 48.5078C144.074 48.2266 144.602 48.0859 145.195 48.0859C145.383 48.0859 145.574 48.1016 145.77 48.1328C145.965 48.1562 146.125 48.1914 146.25 48.2383ZM151.148 51.0273V61H147.773V48.3203H150.938L151.148 51.0273ZM150.656 54.2148H149.742C149.742 53.2773 149.863 52.4336 150.105 51.6836C150.348 50.9258 150.688 50.2812 151.125 49.75C151.562 49.2109 152.082 48.8008 152.684 48.5195C153.293 48.2305 153.973 48.0859 154.723 48.0859C155.316 48.0859 155.859 48.1719 156.352 48.3438C156.844 48.5156 157.266 48.7891 157.617 49.1641C157.977 49.5391 158.25 50.0352 158.438 50.6523C158.633 51.2695 158.73 52.0234 158.73 52.9141V61H155.332V52.9023C155.332 52.3398 155.254 51.9023 155.098 51.5898C154.941 51.2773 154.711 51.0586 154.406 50.9336C154.109 50.8008 153.742 50.7344 153.305 50.7344C152.852 50.7344 152.457 50.8242 152.121 51.0039C151.793 51.1836 151.52 51.4336 151.301 51.7539C151.09 52.0664 150.93 52.4336 150.82 52.8555C150.711 53.2773 150.656 53.7305 150.656 54.2148ZM164.859 48.3203V61H161.473V48.3203H164.859ZM161.262 45.0156C161.262 44.5234 161.434 44.1172 161.777 43.7969C162.121 43.4766 162.582 43.3164 163.16 43.3164C163.73 43.3164 164.188 43.4766 164.531 43.7969C164.883 44.1172 165.059 44.5234 165.059 45.0156C165.059 45.5078 164.883 45.9141 164.531 46.2344C164.188 46.5547 163.73 46.7148 163.16 46.7148C162.582 46.7148 162.121 46.5547 161.777 46.2344C161.434 45.9141 161.262 45.5078 161.262 45.0156ZM176.742 56.5352C176.742 56.2305 176.695 55.957 176.602 55.7148C176.516 55.4648 176.352 55.2383 176.109 55.0352C175.867 54.8242 175.527 54.6172 175.09 54.4141C174.652 54.2109 174.086 54 173.391 53.7812C172.617 53.5312 171.883 53.25 171.188 52.9375C170.5 52.625 169.891 52.2617 169.359 51.8477C168.836 51.4258 168.422 50.9375 168.117 50.3828C167.82 49.8281 167.672 49.1836 167.672 48.4492C167.672 47.7383 167.828 47.0938 168.141 46.5156C168.453 45.9297 168.891 45.4297 169.453 45.0156C170.016 44.5938 170.68 44.2695 171.445 44.043C172.219 43.8164 173.066 43.7031 173.988 43.7031C175.246 43.7031 176.344 43.9297 177.281 44.3828C178.219 44.8359 178.945 45.457 179.461 46.2461C179.984 47.0352 180.246 47.9375 180.246 48.9531H176.754C176.754 48.4531 176.648 48.0156 176.438 47.6406C176.234 47.2578 175.922 46.957 175.5 46.7383C175.086 46.5195 174.562 46.4102 173.93 46.4102C173.32 46.4102 172.812 46.5039 172.406 46.6914C172 46.8711 171.695 47.1172 171.492 47.4297C171.289 47.7344 171.188 48.0781 171.188 48.4609C171.188 48.75 171.258 49.0117 171.398 49.2461C171.547 49.4805 171.766 49.6992 172.055 49.9023C172.344 50.1055 172.699 50.2969 173.121 50.4766C173.543 50.6562 174.031 50.832 174.586 51.0039C175.516 51.2852 176.332 51.6016 177.035 51.9531C177.746 52.3047 178.34 52.6992 178.816 53.1367C179.293 53.5742 179.652 54.0703 179.895 54.625C180.137 55.1797 180.258 55.8086 180.258 56.5117C180.258 57.2539 180.113 57.918 179.824 58.5039C179.535 59.0898 179.117 59.5859 178.57 59.9922C178.023 60.3984 177.371 60.707 176.613 60.918C175.855 61.1289 175.008 61.2344 174.07 61.2344C173.227 61.2344 172.395 61.125 171.574 60.9062C170.754 60.6797 170.008 60.3398 169.336 59.8867C168.672 59.4336 168.141 58.8555 167.742 58.1523C167.344 57.4492 167.145 56.6172 167.145 55.6562H170.672C170.672 56.1875 170.754 56.6367 170.918 57.0039C171.082 57.3711 171.312 57.668 171.609 57.8945C171.914 58.1211 172.273 58.2852 172.688 58.3867C173.109 58.4883 173.57 58.5391 174.07 58.5391C174.68 58.5391 175.18 58.4531 175.57 58.2812C175.969 58.1094 176.262 57.8711 176.449 57.5664C176.645 57.2617 176.742 56.918 176.742 56.5352ZM185.812 50.7578V65.875H182.438V48.3203H185.566L185.812 50.7578ZM193.84 54.5195V54.7656C193.84 55.6875 193.73 56.543 193.512 57.332C193.301 58.1211 192.988 58.8086 192.574 59.3945C192.16 59.9727 191.645 60.4258 191.027 60.7539C190.418 61.0742 189.715 61.2344 188.918 61.2344C188.145 61.2344 187.473 61.0781 186.902 60.7656C186.332 60.4531 185.852 60.0156 185.461 59.4531C185.078 58.8828 184.77 58.2227 184.535 57.4727C184.301 56.7227 184.121 55.918 183.996 55.0586V54.4141C184.121 53.4922 184.301 52.6484 184.535 51.8828C184.77 51.1094 185.078 50.4414 185.461 49.8789C185.852 49.3086 186.328 48.8672 186.891 48.5547C187.461 48.2422 188.129 48.0859 188.895 48.0859C189.699 48.0859 190.406 48.2383 191.016 48.543C191.633 48.8477 192.148 49.2852 192.562 49.8555C192.984 50.4258 193.301 51.1055 193.512 51.8945C193.73 52.6836 193.84 53.5586 193.84 54.5195ZM190.453 54.7656V54.5195C190.453 53.9805 190.406 53.4844 190.312 53.0312C190.227 52.5703 190.086 52.168 189.891 51.8242C189.703 51.4805 189.453 51.2148 189.141 51.0273C188.836 50.832 188.465 50.7344 188.027 50.7344C187.566 50.7344 187.172 50.8086 186.844 50.957C186.523 51.1055 186.262 51.3203 186.059 51.6016C185.855 51.8828 185.703 52.2188 185.602 52.6094C185.5 53 185.438 53.4414 185.414 53.9336V55.5625C185.453 56.1406 185.562 56.6602 185.742 57.1211C185.922 57.5742 186.199 57.9336 186.574 58.1992C186.949 58.4648 187.441 58.5977 188.051 58.5977C188.496 58.5977 188.871 58.5 189.176 58.3047C189.48 58.1016 189.727 57.8242 189.914 57.4727C190.109 57.1211 190.246 56.7148 190.324 56.2539C190.41 55.793 190.453 55.2969 190.453 54.7656ZM199.23 43V61H195.855V43H199.23ZM198.75 54.2148H197.824C197.832 53.332 197.949 52.5195 198.176 51.7773C198.402 51.0273 198.727 50.3789 199.148 49.832C199.57 49.2773 200.074 48.8477 200.66 48.543C201.254 48.2383 201.91 48.0859 202.629 48.0859C203.254 48.0859 203.82 48.1758 204.328 48.3555C204.844 48.5273 205.285 48.8086 205.652 49.1992C206.027 49.582 206.316 50.0859 206.52 50.7109C206.723 51.3359 206.824 52.0938 206.824 52.9844V61H203.426V52.9609C203.426 52.3984 203.344 51.957 203.18 51.6367C203.023 51.3086 202.793 51.0781 202.488 50.9453C202.191 50.8047 201.824 50.7344 201.387 50.7344C200.902 50.7344 200.488 50.8242 200.145 51.0039C199.809 51.1836 199.539 51.4336 199.336 51.7539C199.133 52.0664 198.984 52.4336 198.891 52.8555C198.797 53.2773 198.75 53.7305 198.75 54.2148ZM215.227 61.2344C214.242 61.2344 213.359 61.0781 212.578 60.7656C211.797 60.4453 211.133 60.0039 210.586 59.4414C210.047 58.8789 209.633 58.2266 209.344 57.4844C209.055 56.7344 208.91 55.9375 208.91 55.0938V54.625C208.91 53.6641 209.047 52.7852 209.32 51.9883C209.594 51.1914 209.984 50.5 210.492 49.9141C211.008 49.3281 211.633 48.8789 212.367 48.5664C213.102 48.2461 213.93 48.0859 214.852 48.0859C215.75 48.0859 216.547 48.2344 217.242 48.5312C217.938 48.8281 218.52 49.25 218.988 49.7969C219.465 50.3438 219.824 51 220.066 51.7656C220.309 52.5234 220.43 53.3672 220.43 54.2969V55.7031H210.352V53.4531H217.113V53.1953C217.113 52.7266 217.027 52.3086 216.855 51.9414C216.691 51.5664 216.441 51.2695 216.105 51.0508C215.77 50.832 215.34 50.7227 214.816 50.7227C214.371 50.7227 213.988 50.8203 213.668 51.0156C213.348 51.2109 213.086 51.4844 212.883 51.8359C212.688 52.1875 212.539 52.6016 212.438 53.0781C212.344 53.5469 212.297 54.0625 212.297 54.625V55.0938C212.297 55.6016 212.367 56.0703 212.508 56.5C212.656 56.9297 212.863 57.3008 213.129 57.6133C213.402 57.9258 213.73 58.168 214.113 58.3398C214.504 58.5117 214.945 58.5977 215.438 58.5977C216.047 58.5977 216.613 58.4805 217.137 58.2461C217.668 58.0039 218.125 57.6406 218.508 57.1562L220.148 58.9375C219.883 59.3203 219.52 59.6875 219.059 60.0391C218.605 60.3906 218.059 60.6797 217.418 60.9062C216.777 61.125 216.047 61.2344 215.227 61.2344ZM225.727 51.0859V61H222.352V48.3203H225.527L225.727 51.0859ZM229.547 48.2383L229.488 51.3672C229.324 51.3438 229.125 51.3242 228.891 51.3086C228.664 51.2852 228.457 51.2734 228.27 51.2734C227.793 51.2734 227.379 51.3359 227.027 51.4609C226.684 51.5781 226.395 51.7539 226.16 51.9883C225.934 52.2227 225.762 52.5078 225.645 52.8438C225.535 53.1797 225.473 53.5625 225.457 53.9922L224.777 53.7812C224.777 52.9609 224.859 52.207 225.023 51.5195C225.188 50.8242 225.426 50.2188 225.738 49.7031C226.059 49.1875 226.449 48.7891 226.91 48.5078C227.371 48.2266 227.898 48.0859 228.492 48.0859C228.68 48.0859 228.871 48.1016 229.066 48.1328C229.262 48.1562 229.422 48.1914 229.547 48.2383ZM236.742 61.2344C235.758 61.2344 234.875 61.0781 234.094 60.7656C233.312 60.4453 232.648 60.0039 232.102 59.4414C231.562 58.8789 231.148 58.2266 230.859 57.4844C230.57 56.7344 230.426 55.9375 230.426 55.0938V54.625C230.426 53.6641 230.562 52.7852 230.836 51.9883C231.109 51.1914 231.5 50.5 232.008 49.9141C232.523 49.3281 233.148 48.8789 233.883 48.5664C234.617 48.2461 235.445 48.0859 236.367 48.0859C237.266 48.0859 238.062 48.2344 238.758 48.5312C239.453 48.8281 240.035 49.25 240.504 49.7969C240.98 50.3438 241.34 51 241.582 51.7656C241.824 52.5234 241.945 53.3672 241.945 54.2969V55.7031H231.867V53.4531H238.629V53.1953C238.629 52.7266 238.543 52.3086 238.371 51.9414C238.207 51.5664 237.957 51.2695 237.621 51.0508C237.285 50.832 236.855 50.7227 236.332 50.7227C235.887 50.7227 235.504 50.8203 235.184 51.0156C234.863 51.2109 234.602 51.4844 234.398 51.8359C234.203 52.1875 234.055 52.6016 233.953 53.0781C233.859 53.5469 233.812 54.0625 233.812 54.625V55.0938C233.812 55.6016 233.883 56.0703 234.023 56.5C234.172 56.9297 234.379 57.3008 234.645 57.6133C234.918 57.9258 235.246 58.168 235.629 58.3398C236.02 58.5117 236.461 58.5977 236.953 58.5977C237.562 58.5977 238.129 58.4805 238.652 58.2461C239.184 58.0039 239.641 57.6406 240.023 57.1562L241.664 58.9375C241.398 59.3203 241.035 59.6875 240.574 60.0391C240.121 60.3906 239.574 60.6797 238.934 60.9062C238.293 61.125 237.562 61.2344 236.742 61.2344Z" fill="#888888"/>
<path d="M114.117 84.875H122.344V107.164C122.344 109.82 121.789 112.07 120.68 113.914C119.57 115.742 118.016 117.125 116.016 118.062C114.016 119 111.664 119.469 108.961 119.469C106.289 119.469 103.938 119 101.906 118.062C99.8906 117.125 98.3125 115.742 97.1719 113.914C96.0469 112.07 95.4844 109.82 95.4844 107.164V84.875H103.734V107.164C103.734 108.57 103.938 109.719 104.344 110.609C104.75 111.484 105.344 112.125 106.125 112.531C106.906 112.938 107.852 113.141 108.961 113.141C110.086 113.141 111.031 112.938 111.797 112.531C112.562 112.125 113.141 111.484 113.531 110.609C113.922 109.719 114.117 108.57 114.117 107.164V84.875ZM136.266 84.875V119H128.062V84.875H136.266ZM172.523 84.875H180.75V107.164C180.75 109.82 180.195 112.07 179.086 113.914C177.977 115.742 176.422 117.125 174.422 118.062C172.422 119 170.07 119.469 167.367 119.469C164.695 119.469 162.344 119 160.312 118.062C158.297 117.125 156.719 115.742 155.578 113.914C154.453 112.07 153.891 109.82 153.891 107.164V84.875H162.141V107.164C162.141 108.57 162.344 109.719 162.75 110.609C163.156 111.484 163.75 112.125 164.531 112.531C165.312 112.938 166.258 113.141 167.367 113.141C168.492 113.141 169.438 112.938 170.203 112.531C170.969 112.125 171.547 111.484 171.938 110.609C172.328 109.719 172.523 108.57 172.523 107.164V84.875ZM193.078 84.875L198.656 96.2188L204.234 84.875H213.609L204.094 101.797L213.867 119H204.398L198.656 107.445L192.914 119H183.422L193.219 101.797L183.68 84.875H193.078Z" fill="black"/>
<path d="M1134 0H1348C1356.28 0 1363 6.71573 1363 15V148C1363 156.284 1356.28 163 1348 163H1134V0Z" fill="#054C73"/>
<path d="M1248.5 111.917C1244.51 111.917 1240.55 111.13 1236.86 109.601C1233.17 108.073 1229.82 105.832 1226.99 103.008C1221.29 97.3036 1218.08 89.567 1218.08 81.5C1218.08 73.433 1221.29 65.6964 1226.99 59.9922C1232.7 54.2879 1240.43 51.0833 1248.5 51.0833C1265.23 51.0833 1278.92 63.25 1278.92 78.4583C1278.92 83.2985 1276.99 87.9405 1273.57 91.363C1270.15 94.7856 1265.51 96.7083 1260.67 96.7083H1255.19C1254.28 96.7083 1253.67 97.3167 1253.67 98.2292C1253.67 98.5333 1253.97 98.8375 1253.97 99.1417C1255.19 100.662 1255.8 102.487 1255.8 104.312C1256.1 108.571 1252.76 111.917 1248.5 111.917ZM1248.5 57.1667C1242.05 57.1667 1235.86 59.7303 1231.29 64.2937C1226.73 68.8571 1224.17 75.0464 1224.17 81.5C1224.17 87.9536 1226.73 94.1429 1231.29 98.7063C1235.86 103.27 1242.05 105.833 1248.5 105.833C1249.41 105.833 1250.02 105.225 1250.02 104.312C1250.02 103.704 1249.72 103.4 1249.72 103.096C1248.5 101.575 1247.89 100.054 1247.89 98.2292C1247.89 93.9708 1251.24 90.625 1255.5 90.625H1260.67C1263.89 90.625 1266.99 89.3432 1269.27 87.0615C1271.55 84.7798 1272.83 81.6851 1272.83 78.4583C1272.83 66.5958 1261.88 57.1667 1248.5 57.1667ZM1231.77 75.4167C1234.2 75.4167 1236.33 77.5458 1236.33 79.9792C1236.33 82.4125 1234.2 84.5417 1231.77 84.5417C1229.34 84.5417 1227.21 82.4125 1227.21 79.9792C1227.21 77.5458 1229.34 75.4167 1231.77 75.4167ZM1240.9 63.25C1243.33 63.25 1245.46 65.3792 1245.46 67.8125C1245.46 70.2458 1243.33 72.375 1240.9 72.375C1238.46 72.375 1236.33 70.2458 1236.33 67.8125C1236.33 65.3792 1238.46 63.25 1240.9 63.25ZM1256.1 63.25C1258.54 63.25 1260.67 65.3792 1260.67 67.8125C1260.67 70.2458 1258.54 72.375 1256.1 72.375C1253.67 72.375 1251.54 70.2458 1251.54 67.8125C1251.54 65.3792 1253.67 63.25 1256.1 63.25ZM1265.23 75.4167C1267.66 75.4167 1269.79 77.5458 1269.79 79.9792C1269.79 82.4125 1267.66 84.5417 1265.23 84.5417C1262.8 84.5417 1260.67 82.4125 1260.67 79.9792C1260.67 77.5458 1262.8 75.4167 1265.23 75.4167Z" fill="white"/>
</svg>
