<svg width="1363" height="163" viewBox="0 0 1363 163" fill="none" xmlns="http://www.w3.org/2000/svg">
<path d="M0 15C0 6.71573 6.71573 0 15 0H37V163H15C6.71573 163 0 156.284 0 148V15Z" fill="#424242"/>
<rect width="1097" height="163" transform="translate(37)" fill="#F0F0F0"/>
<path d="M101.906 53.9219L94.3945 51.2383V48.0859L104.602 52.375V54.6367L101.906 53.9219ZM94.3945 56.1719L101.918 53.4297L104.602 52.7852V55.0352L94.3945 59.3242V56.1719ZM116.414 43.9375V61H112.898V43.9375H116.414ZM123.211 51.2266V53.9688H115.453V51.2266H123.211ZM124.031 43.9375V46.6914H115.453V43.9375H124.031ZM133.102 57.9648V48.3203H136.477V61H133.301L133.102 57.9648ZM133.477 55.3633L134.473 55.3398C134.473 56.1836 134.375 56.9688 134.18 57.6953C133.984 58.4141 133.691 59.0391 133.301 59.5703C132.91 60.0938 132.418 60.5039 131.824 60.8008C131.23 61.0898 130.531 61.2344 129.727 61.2344C129.109 61.2344 128.539 61.1484 128.016 60.9766C127.5 60.7969 127.055 60.5195 126.68 60.1445C126.312 59.7617 126.023 59.2734 125.812 58.6797C125.609 58.0781 125.508 57.3555 125.508 56.5117V48.3203H128.883V56.5352C128.883 56.9102 128.926 57.2266 129.012 57.4844C129.105 57.7422 129.234 57.9531 129.398 58.1172C129.562 58.2812 129.754 58.3984 129.973 58.4688C130.199 58.5391 130.449 58.5742 130.723 58.5742C131.418 58.5742 131.965 58.4336 132.363 58.1523C132.77 57.8711 133.055 57.4883 133.219 57.0039C133.391 56.5117 133.477 55.9648 133.477 55.3633ZM142.43 51.0859V61H139.055V48.3203H142.23L142.43 51.0859ZM146.25 48.2383L146.191 51.3672C146.027 51.3438 145.828 51.3242 145.594 51.3086C145.367 51.2852 145.16 51.2734 144.973 51.2734C144.496 51.2734 144.082 51.3359 143.73 51.4609C143.387 51.5781 143.098 51.7539 142.863 51.9883C142.637 52.2227 142.465 52.5078 142.348 52.8438C142.238 53.1797 142.176 53.5625 142.16 53.9922L141.48 53.7812C141.48 52.9609 141.562 52.207 141.727 51.5195C141.891 50.8242 142.129 50.2188 142.441 49.7031C142.762 49.1875 143.152 48.7891 143.613 48.5078C144.074 48.2266 144.602 48.0859 145.195 48.0859C145.383 48.0859 145.574 48.1016 145.77 48.1328C145.965 48.1562 146.125 48.1914 146.25 48.2383ZM151.148 51.0273V61H147.773V48.3203H150.938L151.148 51.0273ZM150.656 54.2148H149.742C149.742 53.2773 149.863 52.4336 150.105 51.6836C150.348 50.9258 150.688 50.2812 151.125 49.75C151.562 49.2109 152.082 48.8008 152.684 48.5195C153.293 48.2305 153.973 48.0859 154.723 48.0859C155.316 48.0859 155.859 48.1719 156.352 48.3438C156.844 48.5156 157.266 48.7891 157.617 49.1641C157.977 49.5391 158.25 50.0352 158.438 50.6523C158.633 51.2695 158.73 52.0234 158.73 52.9141V61H155.332V52.9023C155.332 52.3398 155.254 51.9023 155.098 51.5898C154.941 51.2773 154.711 51.0586 154.406 50.9336C154.109 50.8008 153.742 50.7344 153.305 50.7344C152.852 50.7344 152.457 50.8242 152.121 51.0039C151.793 51.1836 151.52 51.4336 151.301 51.7539C151.09 52.0664 150.93 52.4336 150.82 52.8555C150.711 53.2773 150.656 53.7305 150.656 54.2148ZM164.859 48.3203V61H161.473V48.3203H164.859ZM161.262 45.0156C161.262 44.5234 161.434 44.1172 161.777 43.7969C162.121 43.4766 162.582 43.3164 163.16 43.3164C163.73 43.3164 164.188 43.4766 164.531 43.7969C164.883 44.1172 165.059 44.5234 165.059 45.0156C165.059 45.5078 164.883 45.9141 164.531 46.2344C164.188 46.5547 163.73 46.7148 163.16 46.7148C162.582 46.7148 162.121 46.5547 161.777 46.2344C161.434 45.9141 161.262 45.5078 161.262 45.0156ZM176.742 56.5352C176.742 56.2305 176.695 55.957 176.602 55.7148C176.516 55.4648 176.352 55.2383 176.109 55.0352C175.867 54.8242 175.527 54.6172 175.09 54.4141C174.652 54.2109 174.086 54 173.391 53.7812C172.617 53.5312 171.883 53.25 171.188 52.9375C170.5 52.625 169.891 52.2617 169.359 51.8477C168.836 51.4258 168.422 50.9375 168.117 50.3828C167.82 49.8281 167.672 49.1836 167.672 48.4492C167.672 47.7383 167.828 47.0938 168.141 46.5156C168.453 45.9297 168.891 45.4297 169.453 45.0156C170.016 44.5938 170.68 44.2695 171.445 44.043C172.219 43.8164 173.066 43.7031 173.988 43.7031C175.246 43.7031 176.344 43.9297 177.281 44.3828C178.219 44.8359 178.945 45.457 179.461 46.2461C179.984 47.0352 180.246 47.9375 180.246 48.9531H176.754C176.754 48.4531 176.648 48.0156 176.438 47.6406C176.234 47.2578 175.922 46.957 175.5 46.7383C175.086 46.5195 174.562 46.4102 173.93 46.4102C173.32 46.4102 172.812 46.5039 172.406 46.6914C172 46.8711 171.695 47.1172 171.492 47.4297C171.289 47.7344 171.188 48.0781 171.188 48.4609C171.188 48.75 171.258 49.0117 171.398 49.2461C171.547 49.4805 171.766 49.6992 172.055 49.9023C172.344 50.1055 172.699 50.2969 173.121 50.4766C173.543 50.6562 174.031 50.832 174.586 51.0039C175.516 51.2852 176.332 51.6016 177.035 51.9531C177.746 52.3047 178.34 52.6992 178.816 53.1367C179.293 53.5742 179.652 54.0703 179.895 54.625C180.137 55.1797 180.258 55.8086 180.258 56.5117C180.258 57.2539 180.113 57.918 179.824 58.5039C179.535 59.0898 179.117 59.5859 178.57 59.9922C178.023 60.3984 177.371 60.707 176.613 60.918C175.855 61.1289 175.008 61.2344 174.07 61.2344C173.227 61.2344 172.395 61.125 171.574 60.9062C170.754 60.6797 170.008 60.3398 169.336 59.8867C168.672 59.4336 168.141 58.8555 167.742 58.1523C167.344 57.4492 167.145 56.6172 167.145 55.6562H170.672C170.672 56.1875 170.754 56.6367 170.918 57.0039C171.082 57.3711 171.312 57.668 171.609 57.8945C171.914 58.1211 172.273 58.2852 172.688 58.3867C173.109 58.4883 173.57 58.5391 174.07 58.5391C174.68 58.5391 175.18 58.4531 175.57 58.2812C175.969 58.1094 176.262 57.8711 176.449 57.5664C176.645 57.2617 176.742 56.918 176.742 56.5352ZM185.812 50.7578V65.875H182.438V48.3203H185.566L185.812 50.7578ZM193.84 54.5195V54.7656C193.84 55.6875 193.73 56.543 193.512 57.332C193.301 58.1211 192.988 58.8086 192.574 59.3945C192.16 59.9727 191.645 60.4258 191.027 60.7539C190.418 61.0742 189.715 61.2344 188.918 61.2344C188.145 61.2344 187.473 61.0781 186.902 60.7656C186.332 60.4531 185.852 60.0156 185.461 59.4531C185.078 58.8828 184.77 58.2227 184.535 57.4727C184.301 56.7227 184.121 55.918 183.996 55.0586V54.4141C184.121 53.4922 184.301 52.6484 184.535 51.8828C184.77 51.1094 185.078 50.4414 185.461 49.8789C185.852 49.3086 186.328 48.8672 186.891 48.5547C187.461 48.2422 188.129 48.0859 188.895 48.0859C189.699 48.0859 190.406 48.2383 191.016 48.543C191.633 48.8477 192.148 49.2852 192.562 49.8555C192.984 50.4258 193.301 51.1055 193.512 51.8945C193.73 52.6836 193.84 53.5586 193.84 54.5195ZM190.453 54.7656V54.5195C190.453 53.9805 190.406 53.4844 190.312 53.0312C190.227 52.5703 190.086 52.168 189.891 51.8242C189.703 51.4805 189.453 51.2148 189.141 51.0273C188.836 50.832 188.465 50.7344 188.027 50.7344C187.566 50.7344 187.172 50.8086 186.844 50.957C186.523 51.1055 186.262 51.3203 186.059 51.6016C185.855 51.8828 185.703 52.2188 185.602 52.6094C185.5 53 185.438 53.4414 185.414 53.9336V55.5625C185.453 56.1406 185.562 56.6602 185.742 57.1211C185.922 57.5742 186.199 57.9336 186.574 58.1992C186.949 58.4648 187.441 58.5977 188.051 58.5977C188.496 58.5977 188.871 58.5 189.176 58.3047C189.48 58.1016 189.727 57.8242 189.914 57.4727C190.109 57.1211 190.246 56.7148 190.324 56.2539C190.41 55.793 190.453 55.2969 190.453 54.7656ZM199.23 43V61H195.855V43H199.23ZM198.75 54.2148H197.824C197.832 53.332 197.949 52.5195 198.176 51.7773C198.402 51.0273 198.727 50.3789 199.148 49.832C199.57 49.2773 200.074 48.8477 200.66 48.543C201.254 48.2383 201.91 48.0859 202.629 48.0859C203.254 48.0859 203.82 48.1758 204.328 48.3555C204.844 48.5273 205.285 48.8086 205.652 49.1992C206.027 49.582 206.316 50.0859 206.52 50.7109C206.723 51.3359 206.824 52.0938 206.824 52.9844V61H203.426V52.9609C203.426 52.3984 203.344 51.957 203.18 51.6367C203.023 51.3086 202.793 51.0781 202.488 50.9453C202.191 50.8047 201.824 50.7344 201.387 50.7344C200.902 50.7344 200.488 50.8242 200.145 51.0039C199.809 51.1836 199.539 51.4336 199.336 51.7539C199.133 52.0664 198.984 52.4336 198.891 52.8555C198.797 53.2773 198.75 53.7305 198.75 54.2148ZM215.227 61.2344C214.242 61.2344 213.359 61.0781 212.578 60.7656C211.797 60.4453 211.133 60.0039 210.586 59.4414C210.047 58.8789 209.633 58.2266 209.344 57.4844C209.055 56.7344 208.91 55.9375 208.91 55.0938V54.625C208.91 53.6641 209.047 52.7852 209.32 51.9883C209.594 51.1914 209.984 50.5 210.492 49.9141C211.008 49.3281 211.633 48.8789 212.367 48.5664C213.102 48.2461 213.93 48.0859 214.852 48.0859C215.75 48.0859 216.547 48.2344 217.242 48.5312C217.938 48.8281 218.52 49.25 218.988 49.7969C219.465 50.3438 219.824 51 220.066 51.7656C220.309 52.5234 220.43 53.3672 220.43 54.2969V55.7031H210.352V53.4531H217.113V53.1953C217.113 52.7266 217.027 52.3086 216.855 51.9414C216.691 51.5664 216.441 51.2695 216.105 51.0508C215.77 50.832 215.34 50.7227 214.816 50.7227C214.371 50.7227 213.988 50.8203 213.668 51.0156C213.348 51.2109 213.086 51.4844 212.883 51.8359C212.688 52.1875 212.539 52.6016 212.438 53.0781C212.344 53.5469 212.297 54.0625 212.297 54.625V55.0938C212.297 55.6016 212.367 56.0703 212.508 56.5C212.656 56.9297 212.863 57.3008 213.129 57.6133C213.402 57.9258 213.73 58.168 214.113 58.3398C214.504 58.5117 214.945 58.5977 215.438 58.5977C216.047 58.5977 216.613 58.4805 217.137 58.2461C217.668 58.0039 218.125 57.6406 218.508 57.1562L220.148 58.9375C219.883 59.3203 219.52 59.6875 219.059 60.0391C218.605 60.3906 218.059 60.6797 217.418 60.9062C216.777 61.125 216.047 61.2344 215.227 61.2344ZM225.727 51.0859V61H222.352V48.3203H225.527L225.727 51.0859ZM229.547 48.2383L229.488 51.3672C229.324 51.3438 229.125 51.3242 228.891 51.3086C228.664 51.2852 228.457 51.2734 228.27 51.2734C227.793 51.2734 227.379 51.3359 227.027 51.4609C226.684 51.5781 226.395 51.7539 226.16 51.9883C225.934 52.2227 225.762 52.5078 225.645 52.8438C225.535 53.1797 225.473 53.5625 225.457 53.9922L224.777 53.7812C224.777 52.9609 224.859 52.207 225.023 51.5195C225.188 50.8242 225.426 50.2188 225.738 49.7031C226.059 49.1875 226.449 48.7891 226.91 48.5078C227.371 48.2266 227.898 48.0859 228.492 48.0859C228.68 48.0859 228.871 48.1016 229.066 48.1328C229.262 48.1562 229.422 48.1914 229.547 48.2383ZM236.742 61.2344C235.758 61.2344 234.875 61.0781 234.094 60.7656C233.312 60.4453 232.648 60.0039 232.102 59.4414C231.562 58.8789 231.148 58.2266 230.859 57.4844C230.57 56.7344 230.426 55.9375 230.426 55.0938V54.625C230.426 53.6641 230.562 52.7852 230.836 51.9883C231.109 51.1914 231.5 50.5 232.008 49.9141C232.523 49.3281 233.148 48.8789 233.883 48.5664C234.617 48.2461 235.445 48.0859 236.367 48.0859C237.266 48.0859 238.062 48.2344 238.758 48.5312C239.453 48.8281 240.035 49.25 240.504 49.7969C240.98 50.3438 241.34 51 241.582 51.7656C241.824 52.5234 241.945 53.3672 241.945 54.2969V55.7031H231.867V53.4531H238.629V53.1953C238.629 52.7266 238.543 52.3086 238.371 51.9414C238.207 51.5664 237.957 51.2695 237.621 51.0508C237.285 50.832 236.855 50.7227 236.332 50.7227C235.887 50.7227 235.504 50.8203 235.184 51.0156C234.863 51.2109 234.602 51.4844 234.398 51.8359C234.203 52.1875 234.055 52.6016 233.953 53.0781C233.859 53.5469 233.812 54.0625 233.812 54.625V55.0938C233.812 55.6016 233.883 56.0703 234.023 56.5C234.172 56.9297 234.379 57.3008 234.645 57.6133C234.918 57.9258 235.246 58.168 235.629 58.3398C236.02 58.5117 236.461 58.5977 236.953 58.5977C237.562 58.5977 238.129 58.4805 238.652 58.2461C239.184 58.0039 239.641 57.6406 240.023 57.1562L241.664 58.9375C241.398 59.3203 241.035 59.6875 240.574 60.0391C240.121 60.3906 239.574 60.6797 238.934 60.9062C238.293 61.125 237.562 61.2344 236.742 61.2344Z" fill="#888888"/>
<path d="M114.117 84.875H122.344V107.164C122.344 109.82 121.789 112.07 120.68 113.914C119.57 115.742 118.016 117.125 116.016 118.062C114.016 119 111.664 119.469 108.961 119.469C106.289 119.469 103.938 119 101.906 118.062C99.8906 117.125 98.3125 115.742 97.1719 113.914C96.0469 112.07 95.4844 109.82 95.4844 107.164V84.875H103.734V107.164C103.734 108.57 103.938 109.719 104.344 110.609C104.75 111.484 105.344 112.125 106.125 112.531C106.906 112.938 107.852 113.141 108.961 113.141C110.086 113.141 111.031 112.938 111.797 112.531C112.562 112.125 113.141 111.484 113.531 110.609C113.922 109.719 114.117 108.57 114.117 107.164V84.875ZM134.906 99.0547V119H127.008V93.6406H134.414L134.906 99.0547ZM133.969 105.453L132.117 105.5C132.117 103.562 132.352 101.836 132.82 100.32C133.289 98.7891 133.953 97.4922 134.812 96.4297C135.672 95.3672 136.695 94.5625 137.883 94.0156C139.086 93.4531 140.422 93.1719 141.891 93.1719C143.062 93.1719 144.133 93.3438 145.102 93.6875C146.086 94.0312 146.93 94.5859 147.633 95.3516C148.352 96.1172 148.898 97.1328 149.273 98.3984C149.664 99.6484 149.859 101.195 149.859 103.039V119H141.914V103.016C141.914 102 141.773 101.227 141.492 100.695C141.211 100.148 140.805 99.7734 140.273 99.5703C139.742 99.3672 139.094 99.2656 138.328 99.2656C137.516 99.2656 136.828 99.4219 136.266 99.7344C135.703 100.047 135.25 100.484 134.906 101.047C134.578 101.594 134.336 102.242 134.18 102.992C134.039 103.742 133.969 104.562 133.969 105.453ZM162.586 93.6406V119H154.664V93.6406H162.586ZM154.195 87.1016C154.195 85.9766 154.602 85.0547 155.414 84.3359C156.227 83.6172 157.281 83.2578 158.578 83.2578C159.875 83.2578 160.93 83.6172 161.742 84.3359C162.555 85.0547 162.961 85.9766 162.961 87.1016C162.961 88.2266 162.555 89.1484 161.742 89.8672C160.93 90.5859 159.875 90.9453 158.578 90.9453C157.281 90.9453 156.227 90.5859 155.414 89.8672C154.602 89.1484 154.195 88.2266 154.195 87.1016ZM180.82 93.6406V99.125H165.539V93.6406H180.82ZM168.75 87.3359H176.648V110.727C176.648 111.398 176.727 111.922 176.883 112.297C177.039 112.656 177.305 112.914 177.68 113.07C178.07 113.211 178.586 113.281 179.227 113.281C179.68 113.281 180.055 113.273 180.352 113.258C180.648 113.227 180.93 113.188 181.195 113.141V118.789C180.523 119.008 179.82 119.172 179.086 119.281C178.352 119.406 177.57 119.469 176.742 119.469C175.055 119.469 173.609 119.203 172.406 118.672C171.219 118.141 170.312 117.305 169.688 116.164C169.062 115.023 168.75 113.539 168.75 111.711V87.3359ZM211.406 84.875V119H203.18V84.875H211.406ZM221.672 84.875V91.2266H193.148V84.875H221.672ZM234.961 119.469C232.898 119.469 231.055 119.148 229.43 118.508C227.805 117.852 226.43 116.953 225.305 115.812C224.195 114.672 223.344 113.359 222.75 111.875C222.172 110.391 221.883 108.82 221.883 107.164V106.273C221.883 104.414 222.141 102.695 222.656 101.117C223.172 99.5234 223.938 98.1328 224.953 96.9453C225.969 95.7578 227.242 94.8359 228.773 94.1797C230.305 93.5078 232.086 93.1719 234.117 93.1719C235.914 93.1719 237.523 93.4609 238.945 94.0391C240.367 94.6172 241.57 95.4453 242.555 96.5234C243.555 97.6016 244.312 98.9062 244.828 100.438C245.359 101.969 245.625 103.688 245.625 105.594V108.805H224.906V103.859H237.914V103.25C237.93 102.406 237.781 101.688 237.469 101.094C237.172 100.5 236.734 100.047 236.156 99.7344C235.578 99.4219 234.875 99.2656 234.047 99.2656C233.188 99.2656 232.477 99.4531 231.914 99.8281C231.367 100.203 230.938 100.719 230.625 101.375C230.328 102.016 230.117 102.758 229.992 103.602C229.867 104.445 229.805 105.336 229.805 106.273V107.164C229.805 108.102 229.93 108.953 230.18 109.719C230.445 110.484 230.82 111.141 231.305 111.688C231.805 112.219 232.398 112.633 233.086 112.93C233.789 113.227 234.586 113.375 235.477 113.375C236.555 113.375 237.617 113.172 238.664 112.766C239.711 112.359 240.609 111.688 241.359 110.75L244.945 115.016C244.43 115.75 243.695 116.461 242.742 117.148C241.805 117.836 240.68 118.398 239.367 118.836C238.055 119.258 236.586 119.469 234.961 119.469ZM262.125 111.875C262.125 111.438 261.977 111.062 261.68 110.75C261.398 110.422 260.898 110.125 260.18 109.859C259.461 109.578 258.453 109.297 257.156 109.016C255.922 108.75 254.758 108.398 253.664 107.961C252.586 107.523 251.641 106.992 250.828 106.367C250.016 105.742 249.375 105 248.906 104.141C248.453 103.281 248.227 102.297 248.227 101.188C248.227 100.109 248.453 99.0938 248.906 98.1406C249.375 97.1719 250.055 96.3203 250.945 95.5859C251.852 94.8359 252.953 94.25 254.25 93.8281C255.547 93.3906 257.023 93.1719 258.68 93.1719C260.961 93.1719 262.93 93.5234 264.586 94.2266C266.242 94.9141 267.516 95.8828 268.406 97.1328C269.312 98.3672 269.766 99.7969 269.766 101.422H261.867C261.867 100.781 261.758 100.234 261.539 99.7812C261.336 99.3281 261 98.9844 260.531 98.75C260.062 98.5 259.438 98.375 258.656 98.375C258.109 98.375 257.609 98.4766 257.156 98.6797C256.719 98.8828 256.367 99.1641 256.102 99.5234C255.836 99.8828 255.703 100.305 255.703 100.789C255.703 101.133 255.781 101.445 255.938 101.727C256.109 101.992 256.367 102.242 256.711 102.477C257.055 102.695 257.492 102.898 258.023 103.086C258.555 103.258 259.195 103.414 259.945 103.555C261.648 103.867 263.242 104.312 264.727 104.891C266.211 105.469 267.414 106.289 268.336 107.352C269.273 108.414 269.742 109.844 269.742 111.641C269.742 112.766 269.484 113.805 268.969 114.758C268.453 115.695 267.711 116.523 266.742 117.242C265.773 117.945 264.609 118.492 263.25 118.883C261.891 119.273 260.359 119.469 258.656 119.469C256.234 119.469 254.188 119.039 252.516 118.18C250.844 117.305 249.578 116.211 248.719 114.898C247.875 113.57 247.453 112.227 247.453 110.867H254.812C254.844 111.648 255.031 112.289 255.375 112.789C255.734 113.289 256.211 113.656 256.805 113.891C257.398 114.125 258.086 114.242 258.867 114.242C259.586 114.242 260.18 114.141 260.648 113.938C261.133 113.734 261.5 113.461 261.75 113.117C262 112.758 262.125 112.344 262.125 111.875ZM286.805 93.6406V99.125H271.523V93.6406H286.805ZM274.734 87.3359H282.633V110.727C282.633 111.398 282.711 111.922 282.867 112.297C283.023 112.656 283.289 112.914 283.664 113.07C284.055 113.211 284.57 113.281 285.211 113.281C285.664 113.281 286.039 113.273 286.336 113.258C286.633 113.227 286.914 113.188 287.18 113.141V118.789C286.508 119.008 285.805 119.172 285.07 119.281C284.336 119.406 283.555 119.469 282.727 119.469C281.039 119.469 279.594 119.203 278.391 118.672C277.203 118.141 276.297 117.305 275.672 116.164C275.047 115.023 274.734 113.539 274.734 111.711V87.3359ZM298.289 93.6406V119H290.367V93.6406H298.289ZM289.898 87.1016C289.898 85.9766 290.305 85.0547 291.117 84.3359C291.93 83.6172 292.984 83.2578 294.281 83.2578C295.578 83.2578 296.633 83.6172 297.445 84.3359C298.258 85.0547 298.664 85.9766 298.664 87.1016C298.664 88.2266 298.258 89.1484 297.445 89.8672C296.633 90.5859 295.578 90.9453 294.281 90.9453C292.984 90.9453 291.93 90.5859 291.117 89.8672C290.305 89.1484 289.898 88.2266 289.898 87.1016ZM310.922 99.0547V119H303.023V93.6406H310.43L310.922 99.0547ZM309.984 105.453L308.133 105.5C308.133 103.562 308.367 101.836 308.836 100.32C309.305 98.7891 309.969 97.4922 310.828 96.4297C311.688 95.3672 312.711 94.5625 313.898 94.0156C315.102 93.4531 316.438 93.1719 317.906 93.1719C319.078 93.1719 320.148 93.3438 321.117 93.6875C322.102 94.0312 322.945 94.5859 323.648 95.3516C324.367 96.1172 324.914 97.1328 325.289 98.3984C325.68 99.6484 325.875 101.195 325.875 103.039V119H317.93V103.016C317.93 102 317.789 101.227 317.508 100.695C317.227 100.148 316.82 99.7734 316.289 99.5703C315.758 99.3672 315.109 99.2656 314.344 99.2656C313.531 99.2656 312.844 99.4219 312.281 99.7344C311.719 100.047 311.266 100.484 310.922 101.047C310.594 101.594 310.352 102.242 310.195 102.992C310.055 103.742 309.984 104.562 309.984 105.453ZM346.195 93.6406H353.367V118.016C353.367 120.359 352.828 122.344 351.75 123.969C350.672 125.609 349.164 126.852 347.227 127.695C345.305 128.555 343.055 128.984 340.477 128.984C339.336 128.984 338.172 128.836 336.984 128.539C335.797 128.258 334.688 127.836 333.656 127.273C332.625 126.711 331.758 126.016 331.055 125.188L334.359 120.547C335 121.266 335.805 121.875 336.773 122.375C337.742 122.891 338.883 123.148 340.195 123.148C341.336 123.148 342.289 122.945 343.055 122.539C343.836 122.133 344.43 121.539 344.836 120.758C345.242 119.992 345.445 119.062 345.445 117.969V99.6406L346.195 93.6406ZM329.344 106.625V106.133C329.344 104.211 329.578 102.461 330.047 100.883C330.531 99.2891 331.219 97.9219 332.109 96.7812C333.016 95.625 334.109 94.7344 335.391 94.1094C336.672 93.4844 338.117 93.1719 339.727 93.1719C341.461 93.1719 342.883 93.5078 343.992 94.1797C345.117 94.8359 346.016 95.7578 346.688 96.9453C347.375 98.1328 347.906 99.5234 348.281 101.117C348.672 102.695 349 104.398 349.266 106.227V106.812C349 108.531 348.633 110.156 348.164 111.688C347.711 113.203 347.117 114.547 346.383 115.719C345.648 116.891 344.727 117.812 343.617 118.484C342.523 119.141 341.211 119.469 339.68 119.469C338.086 119.469 336.648 119.148 335.367 118.508C334.102 117.867 333.016 116.969 332.109 115.812C331.219 114.656 330.531 113.297 330.047 111.734C329.578 110.172 329.344 108.469 329.344 106.625ZM337.242 106.133V106.625C337.242 107.578 337.328 108.461 337.5 109.273C337.688 110.086 337.969 110.805 338.344 111.43C338.719 112.039 339.18 112.516 339.727 112.859C340.289 113.203 340.945 113.375 341.695 113.375C342.836 113.375 343.758 113.133 344.461 112.648C345.164 112.164 345.672 111.477 345.984 110.586C346.297 109.695 346.43 108.648 346.383 107.445V105.594C346.414 104.562 346.344 103.656 346.172 102.875C346 102.078 345.727 101.414 345.352 100.883C344.992 100.352 344.508 99.9531 343.898 99.6875C343.305 99.4062 342.586 99.2656 341.742 99.2656C341.008 99.2656 340.359 99.4375 339.797 99.7812C339.234 100.125 338.766 100.609 338.391 101.234C338.016 101.844 337.727 102.57 337.523 103.414C337.336 104.242 337.242 105.148 337.242 106.133Z" fill="black"/>
<path d="M1134 0H1348C1356.28 0 1363 6.71573 1363 15V148C1363 156.284 1356.28 163 1348 163H1134V0Z" fill="#054C73"/>
<path d="M1210.62 43.625H1286.38V119.375H1210.62V43.625Z" fill="white" fill-opacity="0.01"/>
<path d="M1276.91 72.0312V105.172C1276.91 107.787 1274.79 109.906 1272.17 109.906H1224.83C1222.21 109.906 1220.09 107.787 1220.09 105.172V57.8281C1220.09 55.2134 1222.21 53.0938 1224.83 53.0938H1261.12" stroke="white" stroke-width="7.24" stroke-linecap="round" stroke-linejoin="round"/>
<path d="M1232.72 75.1875L1248.5 87.8125L1276.91 53.0938" stroke="white" stroke-width="7.24" stroke-linecap="round" stroke-linejoin="round"/>
</svg>
